<svg xmlns="http://www.w3.org/2000/svg" data-name="Layer 1" viewBox="0 0 4000 4000" width="550" height="550"><path fill="#22a7f0" d="m2484.928 1194.39 488.25 857.296c49.384 86.711 159.688 116.92 246.4 67.536l287.682-163.842a180.626 180.626 0 0 0 67.566-246.347l-488.25-857.295q-269.264 226.741-601.648 342.653Z" class="color22a7f0 svgShape"></path><path fill="#ffffff" d="m3219.553 2119.223 287.712-163.868a179.7 179.7 0 0 0 46.185-37.551l-272.096 154.981c-86.698 49.407-196.994 19.152-246.4-67.546l-76.008-133.537c52.314-69.93-44.656-237.727-131.564-230.923L2557.8 1167.343q-36.062 14.205-72.855 27.08l488.207 857.254c49.406 86.698 159.702 116.953 246.4 67.546Z" opacity=".65" class="colorfff svgShape"></path><path fill="#6b184e" d="M3196.063 2130.428a176.512 176.512 0 0 0 23.49-11.205l287.712-163.868a180.612 180.612 0 0 0 67.538-246.341l-488.207-857.255a1926.278 1926.278 0 0 1-180.201 134.654l473.53 831.431a180.612 180.612 0 0 1-67.537 246.341Z" opacity=".3" class="color6b184e svgShape"></path><path fill="#6b184e" d="M3130.468 2160.713a198.586 198.586 0 0 1-172.792-100.196l-488.252-857.295a17.845 17.845 0 0 1 9.631-25.678 1886.194 1886.194 0 0 0 596.028-339.454 17.84 17.84 0 0 1 26.997 4.817l488.247 857.295a198.457 198.457 0 0 1-74.238 270.681l-287.681 163.843a197.365 197.365 0 0 1-97.94 25.986Zm-619.49-956.634 477.703 838.777c44.424 77.993 144.038 105.3 222.07 60.86l287.681-163.84a162.783 162.783 0 0 0 60.89-222.013L3081.62 879.086a1920.94 1920.94 0 0 1-570.642 324.993Z" class="color6b184e svgShape"></path><path fill="#22a7f0" d="M2484.945 1194.422a1909.994 1909.994 0 0 0 317.217-143.977 1907.492 1907.492 0 0 0 284.434-198.686c-108.806-25.197-175.85-67.593-153.134-146.815-74.368 53.733-149.23 103.163-224.372 147.646a.06.06 0 0 1-.068.052 2111.92 2111.92 0 0 1-14.99 8.792l-.463.24c-81.128 45.168-166.948 87.092-256.773 126.117 79.787 20.894 82.032 100.162 48.15 206.631Z" class="color22a7f0 svgShape"></path><path fill="#ffffff" d="M2672.096 1117.989q-60.75 26.067-123.796 48.005c33.874-106.408 31.629-185.676-48.03-206.613q-31.41 14.497-63.474 28.41c79.787 20.894 82.032 100.162 48.15 206.631a1924.671 1924.671 0 00187.15-76.433zM2500.15 959.364l.12.017c1.7-.74 3.47-1.532 5.186-2.393-1.777.852-3.537 1.584-5.306 2.376z" opacity=".65" class="colorfff svgShape"></path><path fill="#6b184e" d="M2484.931 1212.234a17.842 17.842 0 0 1-17.004-23.252c22.644-71.172 25.874-122.251 9.595-151.82-8.772-15.932-23.567-26.435-45.235-32.111a17.843 17.843 0 0 1-2.595-33.623c91.113-39.624 176.973-81.79 255.195-125.33l.328-.185c77.207-44.98 157.275-97.315 237.827-155.462a17.842 17.842 0 0 1 27.593 19.383c-6.17 21.533-4.683 39.619 4.54 55.292 17.12 29.083 62.681 52.376 135.43 69.229a17.843 17.843 0 0 1 7.466 31.03 1921.84 1921.84 0 0 1-607.268 345.855 17.826 17.826 0 0 1-5.872.994Zm-4.64-224.156a94.224 94.224 0 0 1 28.49 31.875c18.392 33.404 19.395 81.319 2.935 145.87a1885.14 1885.14 0 0 0 536.594-305.596c-64.506-18.814-104.248-43.636-123.886-76.997a94.262 94.262 0 0 1-12.874-40.765c-70.552 49.659-140.554 94.77-208.528 134.37l-.632.36c-68.862 38.33-143.384 75.53-222.1 110.883Z" class="color6b184e svgShape"></path><path fill="#51c5da" d="M2413.23 997.933q11.804-5.045 23.578-10.144c89.8-39.051 175.612-80.933 256.757-126.1l.475-.27c80.244-46.749 160.044-99.186 239.444-156.499 6.885-4.97 13.793-10.022 20.7-15.074 28.258-20.706 33.709-60.715 12.377-88.476l-66.267-86.042a76.485 76.485 0 0 0-74.26-28.65l-217.346 39.071-160.281 91.285-144.54 167.03a76.466 76.466 0 0 0-13.213 78.539l40.218 100.807c12.941 32.54 50.186 48.233 82.358 34.523Z" class="color51c5da svgShape"></path><path fill="#6b184e" d="M2388.974 1021.154a81.038 81.038 0 0 1-75.034-51.01l-40.21-100.791a94.317 94.317 0 0 1 16.365-97.22l144.536-167.024a18.186 18.186 0 0 1 4.76-3.908l160.282-91.284a18.16 18.16 0 0 1 5.793-2.1l217.346-39.072a94.428 94.428 0 0 1 91.92 35.47l66.264 86.036a80.73 80.73 0 0 1-16.04 114.292l-1.206.881c-6.543 4.783-13.086 9.566-19.605 14.27-81.496 58.829-162.558 111.81-240.932 157.469l-.635.361c-79.395 44.192-166.316 86.885-258.503 126.975q-11.613 5.061-23.309 10.03l-.395.168a79.963 79.963 0 0 1-31.397 6.457Zm24.256-23.22Zm46.911-366.614-142.497 164.668a58.03 58.03 0 0 0-10.078 59.83l40.23 100.842a44.102 44.102 0 0 0 24.213 24.604 43.583 43.583 0 0 0 34.058-.083l.373-.16q11.558-4.941 23.091-9.935c91.113-39.624 176.96-81.785 255.17-125.317l.326-.186c77.194-44.97 157.25-97.3 237.793-155.437 6.46-4.663 12.94-9.4 19.421-14.138l1.189-.872a43.553 43.553 0 0 0 17.468-29.218 44.239 44.239 0 0 0-8.784-33.448l-66.257-86.023a58.105 58.105 0 0 0-56.587-21.838l-214.28 38.52Z" class="color6b184e svgShape"></path><path fill="#3c4a59" d="M2413.23 997.933q11.804-5.045 23.578-10.144c89.8-39.051 175.612-80.933 256.757-126.1l.475-.27c80.244-46.749 160.044-99.186 239.444-156.499 6.885-4.97 13.793-10.022 20.7-15.074 28.258-20.706 33.709-60.715 12.377-88.476l-66.267-86.042a76.485 76.485 0 0 0-74.26-28.65l-217.346 39.071-160.281 91.285-144.54 167.03a76.466 76.466 0 0 0-13.213 78.539l40.218 100.807c12.941 32.54 50.186 48.233 82.358 34.523Z" class="color3c4a59 svgShape"></path><path fill="#6b184e" d="M2388.974 1021.648a81.532 81.532 0 0 1-75.49-51.321l-40.21-100.791a94.808 94.808 0 0 1 16.45-97.725l146.633-169.45L2602.22 507.9l220.505-39.641a94.934 94.934 0 0 1 92.398 35.657l66.265 86.035a81.215 81.215 0 0 1-16.143 114.987l-1.206.884c-6.543 4.783-13.081 9.566-19.605 14.27-81.51 58.838-162.585 111.829-240.974 157.495l-.637.364c-79.414 44.204-166.35 86.902-258.55 127q-11.616 5.057-23.313 10.029l-.395.168a80.443 80.443 0 0 1-31.59 6.5Zm71.485-389.942-142.442 164.602a57.54 57.54 0 0 0-9.995 59.326l40.23 100.843a43.615 43.615 0 0 0 23.945 24.333 43.062 43.062 0 0 0 33.699-.09l.351-.152q11.558-4.94 23.089-9.934c91.098-39.616 176.93-81.77 255.127-125.295l.32-.183c77.175-44.961 157.221-97.28 237.749-155.41 6.46-4.661 12.936-9.397 19.418-14.136l1.19-.87a43.076 43.076 0 0 0 17.27-28.89 43.738 43.738 0 0 0-8.687-33.08l-66.255-86.022a57.648 57.648 0 0 0-56.11-21.656l-214.2 38.506Z" class="color6b184e svgShape"></path><path fill="#ffffff" d="M2413.21 997.94c7.9-3.358 15.739-6.723 23.586-10.149 89.825-39.025 175.645-80.95 256.773-126.116l.463-.241q118.573-69.114 235.808-153.875-86.655 59.473-174.073 110.495l-.463.24c-81.128 45.168-166.948 87.092-256.773 126.117a2635.134 2635.134 0 0 1-23.586 10.148c-32.129 13.72-69.403-1.998-82.333-34.506l-40.22-100.853a76.378 76.378 0 0 1 13.225-78.483l130.48-150.85-47.715 27.15-144.5 167.08a76.378 76.378 0 0 0-13.225 78.483l40.22 100.853c12.93 32.508 50.205 48.226 82.333 34.506Z" opacity=".65" class="colorfff svgShape"></path><path fill="#6b184e" d="M2668.561 875.363c8.37-4.517 16.75-9.094 25.008-13.688l.463-.241c80.25-46.764 160.075-99.17 239.43-156.49 6.902-4.97 13.82-10.062 20.73-15.092 28.274-20.71 33.71-60.732 12.374-88.481l-66.25-86.021a76.676 76.676 0 0 0-43.392-27.936l-152.956 79.262c-11.573 5.997-9.684 23.25 2.969 26.38 14.817 3.666 28.523 9.52 35.545 18.653l66.25 86.021c21.334 27.75 15.9 67.772-12.375 88.481-6.91 5.03-13.828 10.122-20.72 15.033q-53.318 38.532-107.076 74.119Z" opacity=".3" class="color6b184e svgShape"></path><path fill="#6b184e" d="M2388.974 1020.776a80.655 80.655 0 0 1-74.682-50.771l-40.21-100.792a93.936 93.936 0 0 1 16.299-96.83l144.536-167.025a17.834 17.834 0 0 1 4.66-3.83l160.281-91.284a17.885 17.885 0 0 1 5.674-2.056l217.346-39.072a94.101 94.101 0 0 1 91.553 35.332l66.267 86.035a80.354 80.354 0 0 1-15.967 113.755l-1.206.881c-6.543 4.783-13.08 9.563-19.6 14.268-81.489 58.823-162.54 111.797-240.903 157.449l-.632.358c-79.38 44.187-166.292 86.873-258.464 126.958q-11.613 5.058-23.309 10.027l-.393.169a79.58 79.58 0 0 1-31.25 6.428Zm24.256-22.842Zm46.667-366.912L2317.358 795.74a58.41 58.41 0 0 0-10.144 60.22l40.23 100.84a44.479 44.479 0 0 0 24.419 24.814 43.96 43.96 0 0 0 34.358-.088c.043-.017.368-.156.368-.156q11.561-4.944 23.093-9.936c91.124-39.63 176.983-81.795 255.206-125.335l.327-.185c77.207-44.98 157.275-97.315 237.827-155.462a3991.3 3991.3 0 0 0 19.421-14.138l1.192-.872a43.926 43.926 0 0 0 17.614-29.47 44.596 44.596 0 0 0-8.857-33.733l-66.255-86.023a58.494 58.494 0 0 0-56.955-21.98l-214.344 38.533Z" class="color6b184e svgShape"></path><path fill="#ffffff" d="M2405.257 454.078h184.453v125.539h-184.453z" transform="rotate(-29.663 2497.484 516.847)" class="colorfff svgShape"></path><path fill="#ffffff" d="m2458.147 610.351 160.304-91.285-.594-1.005-130.008 74.055-61.528-108.049-30.296 17.232 62.122 109.052z" opacity=".65" class="colorfff svgShape"></path><path fill="#6b184e" d="m2448.382 617.017 160.304-91.285-62.121-109.054-82.887 47.187 61.735 108.324-77.418 44.098.387.73z" opacity=".3" class="color6b184e svgShape"></path><path fill="#6b184e" d="M2448.425 634.878a17.83 17.83 0 0 1-15.52-9.014l-62.129-109.087a17.843 17.843 0 0 1 6.672-24.336l160.281-91.284a17.837 17.837 0 0 1 24.334 6.675l62.129 109.087a17.843 17.843 0 0 1-6.673 24.336l-160.28 91.284a17.762 17.762 0 0 1-8.814 2.339Zm-37.812-120.257 44.47 78.079 129.272-73.626-44.47-78.078Z" class="color6b184e svgShape"></path><path fill="#3c4a59" d="M2343.853 501.564a26.543 26.543 0 0 0 36.198 9.928l165.823-94.44a26.572 26.572 0 0 0-26.3-46.179l-165.823 94.44a26.581 26.581 0 0 0-9.898 36.251Z" class="color3c4a59 svgShape"></path><path fill="#6b184e" d="M2366.987 533.21a45 45 0 0 1-11.91-1.611 44.497 44.497 0 0 1-27.055-21.014l-.005-.004a44.85 44.85 0 0 1 16.714-61.101l165.825-94.439a44.792 44.792 0 0 1 44.334 77.844l-165.823 94.439a44.465 44.465 0 0 1-22.08 5.886Zm-7.3-40.662a8.319 8.319 0 0 0 11.343 3.113l165.828-94.44a8.35 8.35 0 0 0 3.112-11.35 8.471 8.471 0 0 0-5.173-3.99 8.302 8.302 0 0 0-6.204.823l-165.827 94.44a8.365 8.365 0 0 0-3.079 11.404Z" class="color6b184e svgShape"></path><path fill="#6b184e" d="M2802.162 1050.446a1907.492 1907.492 0 0 0 284.434-198.687c-108.806-25.197-175.85-67.593-153.134-146.815-74.368 53.733-149.23 103.163-224.372 147.646 132.102-57.684 217.674 138.125 85.555 195.93Z" opacity=".3" class="color6b184e svgShape"></path><path fill="#ffffff" d="M3072.812 1698.64c54.352-29.942 43.599-153.717-24.02-276.458s-166.494-197.969-220.847-168.026-15.053 145.345 52.565 268.086 137.95 206.341 192.302 176.399zM2656.704 676.133c-14.497-28.148-77.776-24.427-141.34 8.31s-103.338 82.092-88.842 110.24 73.913 9.748 137.476-22.989 107.202-67.414 92.706-95.561zM3222.056 1888.394c22.263-22.809 18.817-80.259-14.545-109.883-33.154-29.926-71.859-17.556-84.402 9.165-13.044 27.206-1.736 56.585 22.137 82.836 23.918 25.722 54.772 41.218 76.81 17.882z" opacity=".19" class="colorfff svgShape"></path><circle cx="1930" cy="2064.931" r="1050.977" fill="#ff5722" class="colorff5722 svgShape"></circle><path fill="#ffffff" d="M1561.41 2137.144c-146.468-97.228-156.59-339.668-101.195-423.116s155.33 23.693 301.798 120.921 284.005 147.724 228.61 231.173-282.744 168.25-429.212 71.022Z" opacity=".19" class="colorfff svgShape"></path><path fill="#ffffff" d="M2980.974 2063.461c-.813-580.463-471.983-1050.315-1052.446-1049.502-287.098.402-547.126 115.88-736.544 302.77h-.105c-1.052 1.002-1.998 2.109-3.05 3.11a1085.426 1085.426 0 0 0-20.402 20.83c-1.525 1.582-2.945 3.163-4.417 4.693q-9.702 10.282-19.087 20.88c-1.472 1.581-2.891 3.216-4.31 4.85-6.1 6.96-12.146 13.972-18.033 21.09-1.262 1.476-2.524 2.952-3.733 4.428-6.256 7.592-12.354 15.288-18.451 23.038-1.367 1.792-2.786 3.532-4.153 5.324-5.887 7.697-11.616 15.446-17.345 23.247-1.366 1.95-2.785 3.9-4.204 5.851-5.571 7.802-11.09 15.708-16.45 23.72a602.921 602.921 0 0 0-4.098 6.062c-5.308 8.011-10.51 16.128-15.66 24.245a644.199 644.199 0 0 0-3.782 6.22c-5.096 8.221-10.087 16.495-14.92 24.928-.473.79-.999 1.58-1.471 2.424.157-.263.368-.527.525-.79a1046.22 1046.22 0 0 0-57.185 114.877 1055.757 1055.757 0 0 1 260.326-316.584 1057.618 1057.618 0 0 1 595.06 6.065l-118.582 80.366s-211.677 85.394-214.045 86.188c-2.422.74-167.947 63.637-167.947 63.637l-176.959 58.805-111.816 60.715c142.793-51.701 303.913-101.585 413.198-126.961 202.517-45.887 337.797-122.643 413.608-210.69a1094.633 1094.633 0 0 1 109.91 44.817c-303.357 234.864-546.134 636.258-600.102 942.706 160.264-397.698 370.406-714.686 651.534-916.712 92.961 50.002 178.99 113.336 256.083 187.793-161.86 123.713-267.052 402.27-230.272 870.624 8.674 139.904-1.263 263.983-30.549 371.66q52.703-157.183 52.623-365.003c-6.62-440.223 96.314-714.46 249.22-839.318 218.443 234.344 358.883 571.062 359.393 934.885a1433.484 1433.484 0 0 1-19.624 239.207q10.256-9.73 20.247-19.723a1432.237 1432.237 0 0 0 23.019-258.59c-.5-357.188-135.556-684.645-347.048-918.052 139.053-90.295 312.75-70.79 468.129 27.834 77.825 146.494 122.03 313.573 122.278 490.982a1047.652 1047.652 0 0 1-82.627 410.596c79.519-148.19 124.516-317.605 124.264-497.542Zm-1141.98-757.855A1057.403 1057.403 0 0 0 1288.313 1289c167.504-116.717 370.567-185.933 589.733-188.03l13.26 106.3Zm166.55 65.96a1092.241 1092.241 0 0 0-122.77-51.697c46.242-70.681 57.089-146.579 36.187-218.482 20.117.604 40.13 1.734 59.932 3.444 2.518 68.401 203.768 96.24 252.155 53.254a1047.913 1047.913 0 0 1 132.939 56.476c-122.67 19.076-244.287 75.802-358.444 157.005Zm303.94 218.901c-75.62-75.355-160.123-139.85-251.611-191.275a1267.346 1267.346 0 0 1 349.168-161.522 1055.831 1055.831 0 0 1 406.639 415.493c-168.523-121.881-355.61-150.582-504.196-62.696Z" opacity=".35" class="colorfff svgShape"></path><path fill="#6b184e" d="M1929.956 3134.34c-285.083 0-553.174-110.82-755.083-312.165-202.266-201.702-313.88-470.098-314.28-755.745-.4-285.65 110.462-554.358 312.163-756.626 201.702-202.265 470.098-313.88 755.745-314.28l1.543-.002c285.083 0 553.174 110.82 755.083 312.166 202.268 201.701 313.882 470.097 314.282 755.744.395 285.65-110.466 554.358-312.166 756.626-201.701 202.266-470.097 313.88-755.744 314.28l-1.543.002Zm.085-2101.955h-1.487c-569.348.798-1031.897 464.646-1031.1 1033.992.798 568.828 463.889 1031.1 1032.521 1031.1h1.47c569.346-.798 1031.895-464.645 1031.099-1033.993-.386-275.801-108.15-534.947-303.445-729.695-194.939-194.392-453.818-301.404-729.058-301.404Z" class="color6b184e svgShape"></path><path fill="#6b184e" d="M1880.012 3133.144a18.43 18.43 0 0 1-14.028-30.371c120.854-142.08 173.77-349.033 157.27-615.107-20.198-257.046.799-470.603 62.427-634.436 55.322-147.068 143.765-250.767 255.767-299.888 186.775-81.92 420.12-6.43 608.957 197.01a18.43 18.43 0 1 1-27.014 25.077c-177.847-191.587-395.154-263.755-567.139-188.33-225.332 98.823-333.303 426.126-296.228 897.984 17.13 276.223-38.716 491.977-165.964 641.572a18.386 18.386 0 0 1-14.048 6.49Z" class="color6b184e svgShape"></path><path fill="#6b184e" d="M1253.845 2888a18.63 18.63 0 0 1-2.17-.127 18.433 18.433 0 0 1-16.16-20.451c48.94-417.425 201.89-814.307 430.669-1117.54 117.07-155.17 250.139-281.106 395.503-374.311 153.352-98.323 317.17-157.947 486.902-177.214a18.43 18.43 0 0 1 4.157 36.626c-639.358 72.578-1177.934 760.922-1280.62 1636.73a18.435 18.435 0 0 1-18.281 16.287ZM897.139 1888.225a18.862 18.862 0 0 1-2.273-.14 18.432 18.432 0 0 1-16.043-20.544c24.463-198.816 262.053-270.564 491.819-339.951 195.796-59.126 398.257-120.266 469.888-256.39 35.6-67.653 37.36-149.286 5.38-249.565a18.43 18.43 0 1 1 35.118-11.2c35.136 110.175 32.558 201.086-7.879 277.931-78.818 149.783-288.791 213.191-491.85 274.512-228.516 69.009-444.36 134.19-465.889 309.165a18.437 18.437 0 0 1-18.271 16.182Z" class="color6b184e svgShape"></path><path fill="#6b184e" d="M2928.88 2392.497a1042.673 1042.673 0 0 1-78.999 180.996c-187.382 286.045-510.552 475.123-878.113 475.638-580.463.812-1051.633-469.092-1052.446-1049.503-.259-184.991 47.313-358.834 130.987-509.926a1054.159 1054.159 0 0 1 109.389-139.805 1047.733 1047.733 0 0 0-52.146 329.14c.813 580.464 471.982 1050.316 1052.445 1049.503 303.792-.425 577.282-129.718 768.883-336.043Z" opacity=".3" class="color6b184e svgShape"></path><circle cx="1696.586" cy="2095.098" r="32.911" fill="#6b184e" opacity=".2" transform="rotate(-45 1696.586 2095.098)" class="color6b184e svgShape"></circle><circle cx="2332.184" cy="2006.463" r="32.911" fill="#6b184e" opacity=".2" transform="rotate(-74.029 2332.184 2006.463)" class="color6b184e svgShape"></circle><circle cx="2435.559" cy="1370.964" r="32.911" fill="#6b184e" opacity=".2" transform="rotate(-45 2435.559 1370.964)" class="color6b184e svgShape"></circle><circle cx="2101.492" cy="1687.071" r="32.911" fill="#6b184e" opacity=".2" transform="rotate(-59.937 2101.491 1687.071)" class="color6b184e svgShape"></circle><circle cx="2814.669" cy="2359.428" r="32.911" fill="#6b184e" opacity=".2" transform="rotate(-86.535 2814.669 2359.428)" class="color6b184e svgShape"></circle><circle cx="1644.967" cy="1584.814" r="32.911" fill="#6b184e" opacity=".2" transform="rotate(-64.308 1644.967 1584.814)" class="color6b184e svgShape"></circle><circle cx="1272.115" cy="1793.342" r="32.911" fill="#6b184e" opacity=".2" transform="rotate(-73.977 1272.115 1793.342)" class="color6b184e svgShape"></circle><circle cx="1669.434" cy="1195.542" r="32.911" fill="#6b184e" opacity=".2" transform="rotate(-83.086 1669.434 1195.542)" class="color6b184e svgShape"></circle><circle cx="1818.32" cy="2536.391" r="32.911" fill="#6b184e" opacity=".2" transform="rotate(-27.67 1818.32 2536.39)" class="color6b184e svgShape"></circle><circle cx="1902.719" cy="2381.805" r="21.1" fill="#6b184e" opacity=".2" transform="rotate(-82.381 1902.718 2381.805)" class="color6b184e svgShape"></circle><circle cx="2673.987" cy="1913.986" r="21.1" fill="#6b184e" opacity=".2" transform="rotate(-45 2673.987 1913.986)" class="color6b184e svgShape"></circle><circle cx="2123.31" cy="1217.267" r="21.1" fill="#6b184e" opacity=".2" transform="rotate(-45 2123.31 1217.267)" class="color6b184e svgShape"></circle><circle cx="1832.245" cy="1825.469" r="14.92" fill="#6b184e" opacity=".2" transform="rotate(-61.744 1832.245 1825.47)" class="color6b184e svgShape"></circle><path fill="#6b184e" d="M2313.938 1824.795a14.92 14.92 0 1 1-14.94-14.9 14.92 14.92 0 0 1 14.94 14.9Z" opacity=".2" class="color6b184e svgShape"></path><circle cx="1589.983" cy="1372.148" r="14.92" fill="#6b184e" opacity=".2" transform="rotate(-45 1589.982 1372.148)" class="color6b184e svgShape"></circle><circle cx="1238.77" cy="1484.014" r="14.92" fill="#6b184e" opacity=".2" transform="rotate(-76.167 1238.77 1484.015)" class="color6b184e svgShape"></circle><path fill="#6b184e" d="M1530.16 1702.792a14.92 14.92 0 1 1-14.942-14.9 14.92 14.92 0 0 1 14.941 14.9Z" opacity=".2" class="color6b184e svgShape"></path><circle cx="1615.366" cy="2382.207" r="14.92" fill="#6b184e" opacity=".2" transform="rotate(-34.277 1615.366 2382.207)" class="color6b184e svgShape"></circle><path fill="#6b184e" d="M1934.013 2127.677a10.55 10.55 0 11-10.565-10.535 10.55 10.55 0 0110.565 10.535zM2226.686 2161.943a10.55 10.55 0 11-10.565-10.536 10.55 10.55 0 0110.565 10.536z" opacity=".2" class="color6b184e svgShape"></path><circle cx="2587.758" cy="1719.302" r="10.55" fill="#6b184e" opacity=".2" transform="rotate(-3.934 2587.762 1719.304)" class="color6b184e svgShape"></circle><circle cx="2597.919" cy="1441.208" r="10.55" fill="#6b184e" opacity=".2" class="color6b184e svgShape"></circle><path fill="#6b184e" d="M2323.92 1418.952a10.55 10.55 0 11-10.565-10.535 10.55 10.55 0 0110.565 10.535zM2032.454 1259.627a10.55 10.55 0 11-10.565-10.535 10.55 10.55 0 0110.565 10.535z" opacity=".2" class="color6b184e svgShape"></path><circle cx="2289.449" cy="2525.181" r="10.55" fill="#6b184e" opacity=".2" class="color6b184e svgShape"></circle><circle cx="1776.102" cy="1217.754" r="10.55" fill="#6b184e" opacity=".2" transform="rotate(-20.417 1776.101 1217.753)" class="color6b184e svgShape"></circle><circle cx="1348.037" cy="1997.29" r="10.55" fill="#6b184e" opacity=".2" transform="rotate(-4.006 1348.037 1997.29)" class="color6b184e svgShape"></circle><path fill="#6b184e" d="M2672.98 2826.667a18.455 18.455 0 0 1-18.154-21.736 1418.003 1418.003 0 0 0 22.72-255.261c-.476-340.256-120.19-659.89-337.092-900.024-216.057-239.202-502.815-370.887-807.547-370.887h-1.479a1037.93 1037.93 0 0 0-333.56 55.418 18.44 18.44 0 1 1-11.088-35.164 1074.657 1074.657 0 0 1 344.594-57.114c.503-.002 1.035-.002 1.536-.002 315.315 0 611.746 135.986 834.9 383.042 223.017 246.906 346.108 575.297 346.596 924.677a1454.647 1454.647 0 0 1-23.315 261.917 18.438 18.438 0 0 1-18.11 15.134Z" class="color6b184e svgShape"></path></svg>