<svg xmlns="http://www.w3.org/2000/svg" xmlns:xlink="http://www.w3.org/1999/xlink" data-name="Layer 1" viewBox="0 0 2259.26 2311.84" width="550" height="550"><defs><linearGradient id="a" x1="837.1" x2="837.1" y1="1769.47" y2="2329.74" gradientUnits="userSpaceOnUse"><stop offset="0" stop-color="#dee1e2" class="stopColordee1e2 svgShape"></stop><stop offset="1" stop-color="#efefef" class="stopColorefefef svgShape"></stop></linearGradient><linearGradient id="g" x1="1656.02" x2="1656.02" y1="1769.47" y2="2329.74" xlink:href="#a"></linearGradient><linearGradient id="h" x1="3775.24" x2="1994.63" y1="1277.9" y2="3025.94" xlink:href="#a"></linearGradient><linearGradient id="i" x1="1246.73" x2="1246.73" y1="3327.81" y2="-2592.83" xlink:href="#a"></linearGradient><linearGradient id="b" x1="3364.72" x2="3612.37" y1="1944.12" y2="1944.12" gradientTransform="rotate(2.35 4409.01 280.51)" gradientUnits="userSpaceOnUse"><stop offset="0" stop-color="#735cd2" class="stopColor735cd2 svgShape"></stop><stop offset="1" stop-color="#8f6acc" class="stopColor8f6acc svgShape"></stop></linearGradient><linearGradient id="j" x1="1520.32" x2="3419.51" y1="2503.26" y2="2581.28" xlink:href="#b"></linearGradient><linearGradient id="k" x1="1534.62" x2="3453.71" y1="2378.71" y2="2457.54" xlink:href="#b"></linearGradient><linearGradient id="l" x1="3338.43" x2="3586.08" y1="1880.3" y2="1880.3" gradientTransform="rotate(2.76 4471.593 231.202)" xlink:href="#b"></linearGradient><linearGradient id="c" x1="6701.12" x2="6655.16" y1="3151.45" y2="3400.6" gradientTransform="rotate(69.6 5171.739 485.622)" gradientUnits="userSpaceOnUse"><stop offset="0" stop-color="#2fa2fa" class="stopColor2fa2fa svgShape"></stop><stop offset="1" stop-color="#37d3fb" class="stopColor37d3fb svgShape"></stop></linearGradient><linearGradient id="m" x1="6737.25" x2="6691.29" y1="3072.95" y2="3322.1" xlink:href="#c"></linearGradient><linearGradient id="n" x1="6818.66" x2="7076.87" y1="2943.88" y2="2943.88" gradientTransform="rotate(69.6 5171.739 485.622)" xlink:href="#b"></linearGradient><linearGradient id="o" x1="6763.48" x2="7021.69" y1="2981.37" y2="2981.37" gradientTransform="rotate(69.6 5171.739 485.622)" xlink:href="#b"></linearGradient><linearGradient id="d" x1="6765.04" x2="6575.24" y1="2977.49" y2="2787.69" gradientTransform="rotate(69.6 5171.739 485.622)" gradientUnits="userSpaceOnUse"><stop offset="0" stop-color="#fb9835" class="stopColorfb9835 svgShape"></stop><stop offset="1" stop-color="#fbbb3c" class="stopColorfbbb3c svgShape"></stop></linearGradient><linearGradient id="p" x1="6802.57" x2="6612.77" y1="3028.7" y2="2838.9" xlink:href="#d"></linearGradient><linearGradient id="e" x1="1756.63" x2="1756.63" y1="2368.7" y2="979.64" gradientUnits="userSpaceOnUse"><stop offset="0" stop-color="#60b05b" class="stopColor60b05b svgShape"></stop><stop offset=".25" stop-color="#75bc60" class="stopColor75bc60 svgShape"></stop><stop offset=".74" stop-color="#9ad069" class="stopColor9ad069 svgShape"></stop><stop offset="1" stop-color="#a8d86d" class="stopColora8d86d svgShape"></stop></linearGradient><linearGradient id="q" x1="1756.63" x2="1756.63" y1="1940.68" y2="1220.88" xlink:href="#e"></linearGradient><linearGradient id="f" x1="1899.88" x2="1600.33" y1="1237.87" y2="1541.08" gradientUnits="userSpaceOnUse"><stop offset="0" stop-color="#fefefc" class="stopColorfefefc svgShape"></stop><stop offset="1" stop-color="#c4eafc" stop-opacity=".1" class="stopColorc4eafc svgShape"></stop></linearGradient><linearGradient id="r" x1="2010.29" x2="1724.31" y1="1371.33" y2="1660.81" xlink:href="#f"></linearGradient></defs><path fill="url(#a)" d="m825.1 1904.7-143.43 407.14h120.3l190.56-306.22"></path><path fill="url(#g)" d="m1668.02 1904.7 143.42 407.14h-120.29l-190.56-306.22"></path><path fill="url(#h)" d="M3360.16 2414.85c0 335.11-221.82 618.39-526.61 711a740.21 740.21 0 0 1-179.48 31.15q-18.36.91-37 .92c-410.39 0-743.08-332.69-743.08-743.08s332.69-743.05 743.08-743.05a744.62 744.62 0 0 1 184.37 23.05 728 728 0 0 1 83.58 26.76c277.98 107.49 475.14 377.4 475.14 693.25Z" transform="translate(-1370.37 -1094.08)"></path><circle cx="1246.73" cy="1320.78" r="564.71" fill="#ffffff" class="colorfff svgShape"></circle><circle cx="1246.73" cy="1320.78" r="397.58" fill="url(#i)"></circle><circle cx="1246.73" cy="1320.78" r="241.53" fill="#ffffff" class="colorfff svgShape"></circle><circle cx="1274.43" cy="500.47" r="19.59" fill="#735cd2" class="color735cd2 svgShape"></circle><g opacity=".19" fill="#000000" class="color000 svgShape"><path fill="url(#b)" d="m3549.25 1794-65.85 234.32c-2.61 9.28-15.87 9-18-.42l-30-129.69-129-25.67c-9.48-1.89-10.17-15.18-.94-18l232.15-71.92a9.32 9.32 0 0 1 11.64 11.38Z" transform="translate(-1370.37 -1094.08)"></path><path fill="url(#j)" d="M1518.81 3179.43c67-71.73 135-142.41 203.25-212.84s137-140.38 205.95-210.06q206.93-209 417.16-414.68a25.62 25.62 0 0 1 41.15 7.52l.13.3 41.9 91.39 41.7 91.48 41.51 91.57 41.29 91.66-41.11-8.34q223.74-204.47 450.53-405.63 56.73-50.21 113.73-100.21t114.27-99.59q28.59-24.88 57.36-49.57t57.54-49.38q57.68-49.22 115.86-97.9-53.13 54.16-107.07 107.44-26.95 26.67-53.93 53.29t-54.11 53.1q-54.15 53.06-108.66 105.72T2988 2329.78q-219 209.66-441.21 415.74a25.83 25.83 0 0 1-41-8.08l-.11-.27-41.82-91.43-41.6-91.52-41.41-91.61-41.22-91.7 41.28 7.82q-212.09 203.73-427.08 404.45-107.59 100.27-216.18 199.51c-72.42 66.11-145.12 131.94-218.84 196.74Z" transform="translate(-1370.37 -1094.08)"></path></g><path fill="url(#k)" d="M1543.06 3055.28c65.73-73 132.8-144.67 200.27-215.91s135.55-141.83 204-212 137.34-140 206.57-209.41 138.82-138.47 208.71-207.21a35.29 35.29 0 0 1 56.7 10.24l.24.55 21.06 45.64 21 45.69 41.76 91.45 41.49 91.57 41.2 91.71-56.7-11.5q224-204.14 452.3-403.71 57.14-49.81 114.57-99.3t115.31-98.49q57.86-49 116.21-97.52c39-32.26 78-64.46 117.54-96.08-34.76 36.82-70 73.08-105.4 109.26s-71 72.05-106.73 107.82-71.63 71.36-107.62 106.85-72.15 70.8-108.36 106q-217.45 211.29-439.44 417.66a35.59 35.59 0 0 1-56.51-11.06l-.2-.45-41.92-91.38-41.62-91.52-41.36-91.64-20.59-45.86-20.5-45.9 56.94 10.78q-106.22 101.68-213.42 202.36T1983 2664.09q-108.36 99.48-218.1 197.53c-73.23 65.29-146.9 130.17-221.84 193.66Z" transform="translate(-1370.37 -1094.08)"></path><path fill="url(#l)" d="m3513 1719.67-67.52 233.84c-2.67 9.26-15.93 8.86-18-.55l-29.12-129.9-128.82-26.59c-9.46-2-10.06-15.25-.81-18l232.66-70.26a9.32 9.32 0 0 1 11.61 11.46Z" transform="translate(-1370.37 -1094.08)"></path><g data-name="Data 2" fill="#000000" class="color000 svgShape"><path fill="url(#c)" d="M3146 3119.07a269.67 269.67 0 0 1-144.14-99.07h-.13a275.89 275.89 0 0 1-41.1-80.12l-3.13-10.91a278.06 278.06 0 0 1-7.34-37.23 259.14 259.14 0 0 1-1.73-43.8c.32-6.62.79-13.3 1.52-20.07a268.46 268.46 0 0 1 51.46-130.64c47.51-63.82 122.19-105.37 204.92-109a20.6 20.6 0 0 1 21.22 22.93l-4.13 36.38-16.1 142.46-11.09 97.19-10.36 91.67-13.87 122.51a20.65 20.65 0 0 1-26 17.7Z" opacity=".13" transform="translate(-1370.37 -1094.08)"></path><path fill="url(#m)" d="M3232.21 3125.58a269.67 269.67 0 0 1-144.21-99.09h-.13a275.89 275.89 0 0 1-41.1-80.12l-3.13-10.91a278.06 278.06 0 0 1-7.34-37.23 259.14 259.14 0 0 1-1.73-43.8c.32-6.62.79-13.3 1.52-20.07a268.46 268.46 0 0 1 51.46-130.64c47.51-63.82 122.19-105.37 204.92-109a20.6 20.6 0 0 1 21.22 22.93l-4.13 36.38-16.11 142.43-11.09 97.19-10.36 91.68-13.9 122.55a20.65 20.65 0 0 1-25.89 17.7Z" transform="translate(-1370.37 -1094.08)"></path><path fill="url(#n)" d="M3371.43 3173.72c-12.61.66-22.64-10.48-21.23-22.93l15.38-135.65 10.36-91.66.11-1a20.83 20.83 0 0 1 15.7-17.76L3602.6 2855a20.8 20.8 0 0 1 23.94 12.32 23.58 23.58 0 0 1 1.33 5.24 264.33 264.33 0 0 1-.05 61.5c-.92 7.93-2.09 15.64-3.7 23.37-24.57 122.17-129.83 211.02-252.69 216.29Z" opacity=".13" transform="translate(-1370.37 -1094.08)"></path><path fill="url(#o)" d="M3317 3135.07c-12.61.66-22.64-10.48-21.23-22.93l15.38-135.65 10.36-91.66.11-1a20.83 20.83 0 0 1 15.7-17.76l210.86-49.76a20.8 20.8 0 0 1 23.94 12.32 23.58 23.58 0 0 1 1.33 5.24 264.33 264.33 0 0 1-.05 61.5c-.92 7.93-2.09 15.64-3.7 23.37-24.53 122.26-129.79 211.06-252.7 216.33Z" transform="translate(-1370.37 -1094.08)"></path><path fill="url(#d)" d="m3571.29 2727.32-180 42.45a20.55 20.55 0 0 1-25.2-22.38l1.5-12.63 16.11-142.43 2.6-23.42a20.7 20.7 0 0 1 25.8-17.65 265.3 265.3 0 0 1 55.37 22.31 271 271 0 0 1 112.1 113.64c2 3.74 3.94 7.67 5.68 11.51a20.63 20.63 0 0 1-13.96 28.6Z" opacity=".13" transform="translate(-1370.37 -1094.08)"></path><path fill="url(#p)" d="m3536.37 2780.33-180 42.45a20.55 20.55 0 0 1-25.2-22.38l1.5-12.63 16.11-142.43 2.6-23.42a20.7 20.7 0 0 1 25.8-17.65 265.3 265.3 0 0 1 55.37 22.31 271 271 0 0 1 112.1 113.64c2 3.74 3.94 7.67 5.68 11.51a20.63 20.63 0 0 1-13.96 28.6Z" transform="translate(-1370.37 -1094.08)"></path></g><path fill="#fefefe" d="m3293.5 2796.46-258.89 58c.32-6.62.79-13.3 1.52-20.07a268.46 268.46 0 0 1 51.46-130.64l222-49.72ZM3544.68 2740.23l-212 47.54 16.11-142.43 83.77-18.76a271 271 0 0 1 112.12 113.65ZM3272 2985.33l-184 41.16h-.13a275.89 275.89 0 0 1-41.1-80.12l235.6-52.76ZM3569.73 2918.76l-258.53 57.73 10.36-91.66 250.6-56.17a23.58 23.58 0 0 1 1.33 5.24 264.33 264.33 0 0 1-.05 61.5c-.93 7.93-2.1 15.6-3.71 23.36Z" opacity=".1" transform="translate(-1370.37 -1094.08)" class="colorfefefe svgShape"></path><path fill="url(#e)" d="M2142.88 1480.34c0 8.27-.23 16.29-.93 24.31-11.57 190.54-161.5 343.52-350.38 360.3a344.15 344.15 0 0 1-34.94 1.65c-3.54 0-7.08 0-10.62-.23a386 386 0 0 1-171.89-45.37 391 391 0 0 1-139.3-127 381.7 381.7 0 0 1-58.82-148.51 347.36 347.36 0 0 1-5.67-63v-2.12c0-213.44 172.82-386.26 386.26-386.26a383.43 383.43 0 0 1 99.4 13h.24a386.44 386.44 0 0 1 286.62 373.28Z" opacity=".14" transform="translate(-1370.37 -1094.08)"></path><path fill="url(#q)" d="M1956.78 1480.34c0 4.28-.12 8.44-.48 12.6-6 98.74-83.69 178-181.57 186.7a178.33 178.33 0 0 1-18.11.85c-1.83 0-3.67 0-5.5-.12a200 200 0 0 1-89.07-23.5 202.64 202.64 0 0 1-72.18-65.82 197.79 197.79 0 0 1-30.46-77 180 180 0 0 1-2.94-32.67v-1.1a200.2 200.2 0 0 1 251.66-193.43h.13a200.25 200.25 0 0 1 148.52 193.43Z" transform="translate(-1370.37 -1094.08)"></path><path fill="none" stroke="#fff" stroke-linecap="square" stroke-linejoin="round" stroke-width="50.96" d="m1853.94 1432.13-116.52 113.3a14.67 14.67 0 0 1-22.25-2.1l-51.17-73.14" transform="translate(-1370.37 -1094.08)" class="colorStrokefff svgStroke"></path><path fill="url(#f)" d="m1882 1324.35-292.16 266.71a197.79 197.79 0 0 1-30.46-77l248.72-227.19h.13a198.71 198.71 0 0 1 73.77 37.48Z" opacity=".21" transform="translate(-1370.37 -1094.08)"></path><path fill="url(#r)" d="M1956.78 1480.34c0 4.28-.12 8.44-.48 12.6l-205.17 187.44a200 200 0 0 1-89.07-23.5l278.83-254.72a198 198 0 0 1 15.89 78.18Z" opacity=".21" transform="translate(-1370.37 -1094.08)"></path><path fill="#735cd2" d="M2641.52 1591.06c-.38-6-.67-12.07-1-18.1a1 1 0 012-.11 1 1 0 010 .11c-.33 6.04-.61 12.04-1 18.1zM2639.05 1540.38l-.68-18.1a3.16 3.16 0 116.31-.24v.24l-.68 18.1a2.47 2.47 0 01-4.94 0zM2637.13 1489.93A88.61 88.61 0 002634 1473a4.77 4.77 0 019.17-2.63l.06.24a96.64 96.64 0 012.37 18.81 4.26 4.26 0 01-8.51.49zM2620.65 1445.49a87.41 87.41 0 00-11.2-12.74 5.91 5.91 0 118.08-8.63l.15.14a98.9 98.9 0 0112.1 14.9 5.56 5.56 0 01-9.15 6.33zM2584.16 1416.14a88.74 88.74 0 00-16-5.13 6.68 6.68 0 012.85-13h.1a95.56 95.56 0 0118.28 6.38 6.45 6.45 0 01-5.26 11.77zM2537.27 1409.15l-18.1.12a7.11 7.11 0 01-.09-14.22h.09l18.1.12a7 7 0 010 14zM2486.59 1409.37h-18.1a7.23 7.23 0 110-14.46h18.1a7.21 7.21 0 010 14.43zM2435.91 1409.31l-18.1-.12a7 7 0 010-14.07l18.1-.12a7.15 7.15 0 11.09 14.31zM2385.23 1408.9l-18.1-.21a6.54 6.54 0 010-13.08l18.1-.21a6.75 6.75 0 01.15 13.5zM2334.55 1408.19l-18.1-.35a5.68 5.68 0 010-11.35l18.1-.35a6 6 0 11.23 12.06zM2283.88 1407.08l-18.1-.5a4.43 4.43 0 010-8.85l18.1-.5a4.93 4.93 0 11.27 9.86zM2233.2 1405.52l-18.1-.69a2.67 2.67 0 010-5.34l18.1-.69a3.36 3.36 0 11.26 6.72zM2182.52 1403.41l-9-.47-9-.49a.3.3 0 010-.6l9-.49 9-.47a1.26 1.26 0 01.13 2.51zM1812.34 2320.41c-6 .38-12.07.67-18.1 1a1 1 0 01-.11-2h.11c6.03.33 12.06.59 18.1 1zM1761.66 2322.88l-18.1.68a3.16 3.16 0 01-.24-6.31h.24l18.1.68a2.47 2.47 0 010 4.94zM1710.75 2324.53a96.62 96.62 0 01-18.81-2.37 4.77 4.77 0 112.11-9.3l.26.07a88.59 88.59 0 0016.92 3.1 4.26 4.26 0 01-.48 8.51zM1660.46 2308.7a98.88 98.88 0 01-14.9-12.1 5.91 5.91 0 018.31-8.41l.16.16a87.4 87.4 0 0012.74 11.2 5.56 5.56 0 01-6.32 9.15zM1625.66 2268.33a95.56 95.56 0 01-6.38-18.28 6.68 6.68 0 1113-3.11v.13a88.74 88.74 0 005.13 16 6.45 6.45 0 01-11.77 5.27zM1616.45 2216.16l-.12-18.1a7.11 7.11 0 0114.22-.09v.09l-.12 18.1a7 7 0 01-14 0zM1616.22 2165.48v-18.1a7.23 7.23 0 1114.46 0v18.1a7.21 7.21 0 01-14.42 0zM1616.28 2114.8l.12-18.1a7 7 0 0114.07 0l.12 18.1a7.15 7.15 0 01-14.31.09s0-.07 0-.09zM1616.69 2064.12l.21-18.1a6.54 6.54 0 0113.08 0l.21 18.1a6.75 6.75 0 01-13.5.15s0-.11 0-.15zM1617.41 2013.44l.35-18.1a5.68 5.68 0 0111.35 0l.35 18.1a6 6 0 11-12.06.23c.01-.06.01-.16.01-.23zM1618.51 1962.77l.5-18.1a4.43 4.43 0 018.85 0l.5 18.1a4.93 4.93 0 11-9.86.27c.01-.04.01-.19.01-.27zM1620.08 1912.09l.69-18.1a2.67 2.67 0 015.34 0l.69 18.1a3.36 3.36 0 11-6.72.26 1.13 1.13 0 010-.26zM1622.18 1861.41l.47-9 .49-9a.3.3 0 01.6 0l.49 9 .47 9a1.26 1.26 0 11-2.51.13s-.01-.09-.01-.13z" opacity=".57" transform="translate(-1370.37 -1094.08)" class="color735cd2 svgShape"></path><circle cx="775.75" cy="308.08" r="19.59" fill="#735cd2" class="color735cd2 svgShape"></circle><circle cx="461.55" cy="1226.33" r="19.59" fill="#735cd2" class="color735cd2 svgShape"></circle></svg>