<svg xmlns="http://www.w3.org/2000/svg" xmlns:xlink="http://www.w3.org/1999/xlink" enable-background="new 0 0 4000 4000" viewBox="0 0 4000 4000" width="550" height="550"><path d="M4000,1279.32" fill="#000000" class="color000 svgShape"></path><path fill="none" stroke="#000" stroke-miterlimit="10" stroke-width="10" d="M0,3990" class="colorStroke000 svgStroke"></path><path fill="#ffffff" d="M3554,1533.01" class="colorfff svgShape"></path><path fill="#b4b4b4" stroke="#000" stroke-miterlimit="10" stroke-width="20" d="M3699.35 1631.45" class="colorb4b4b4 svgShape colorStroke000 svgStroke"></path><path d="M3745.16 1537.94" fill="#000000" class="color000 svgShape"></path><path fill="#b4b4b4" d="M3856.92,572" class="colorb4b4b4 svgShape"></path><path d="M3699.35,804.56" fill="#000000" class="color000 svgShape"></path><path fill="#ffffff" d="M1818.35,1736.33c55.29,18.09,83.17,39.73,96.75,52.64c5.78,5.5,18.07,17.2,15.7,22.56
				c-2.8,6.34-24.26-0.33-24.26-0.33C1877.15,1786.24,1847.75,1761.29,1818.35,1736.33z" class="colorfff svgShape"></path><polygon fill="#ffffff" points="1859.32 1622.85 1923.87 1562.97 2016.57 1652.76 1988.62 1688.8 1863.15 1650.59" class="colorfff svgShape"></polygon><path fill="#b4b4b4" d="M1877.85 1877.96" class="colorb4b4b4 svgShape"></path><path fill="#ffffff" d="M1891.94 1393.93" class="colorfff svgShape"></path><path d="M2096.84 1629.62" fill="#000000" class="color000 svgShape"></path><path fill="none" stroke="#000" stroke-miterlimit="10" stroke-width="20" d="M1841.64,2168.74" class="colorStroke000 svgStroke"></path><path fill="#ffffff" d="M2014.46 1479.41" class="colorfff svgShape"></path><path fill="#f9b208" d="M1949.23 1660.64" class="colorf9b208 svgShape"></path><ellipse cx="2012.31" cy="3579.78" fill="#ffffff" rx="1427.87" ry="10.92" class="colorfff svgShape"></ellipse><path d="M2012.31,3602.07c-381.42,0-740.02-1.14-1009.74-3.2c-131.17-1-234.17-2.17-306.12-3.47c-36.52-0.66-64.59-1.35-83.42-2.06
		c-9.68-0.36-17.1-0.73-22.07-1.11c-2.76-0.21-4.83-0.42-6.36-0.65c-10.7-1.61-11.54-9.45-11.54-11.81c0-2.36,0.83-10.2,11.54-11.81
		c1.52-0.23,3.6-0.44,6.36-0.65c4.96-0.37,12.39-0.75,22.07-1.11c18.83-0.7,46.9-1.4,83.42-2.06c71.96-1.3,174.95-2.47,306.12-3.47
		c269.72-2.06,628.32-3.2,1009.74-3.2s740.02,1.14,1009.74,3.2c131.17,1,234.17,2.17,306.12,3.47c36.52,0.66,64.59,1.35,83.42,2.06
		c9.68,0.36,17.1,0.73,22.07,1.11c2.75,0.21,4.83,0.42,6.36,0.65c10.7,1.61,11.54,9.45,11.54,11.81c0,2.36-0.83,10.2-11.54,11.81
		c-1.52,0.23-3.6,0.44-6.36,0.65c-4.96,0.37-12.39,0.75-22.07,1.11c-18.83,0.7-46.9,1.4-83.42,2.06
		c-71.96,1.3-174.95,2.47-306.12,3.47C2752.33,3600.94,2393.73,3602.07,2012.31,3602.07z" fill="#000000" class="color000 svgShape"></path><path fill="#ffffff" stroke="#000" stroke-miterlimit="10" d="M1893.6 2189.54" class="colorfff svgShape colorStroke000 svgStroke"></path><path d="M1900.59 1490.34" fill="#000000" class="color000 svgShape"></path><path fill="#f9b208" d="M1974.49,2267.43" class="colorf9b208 svgShape"></path><path fill="#ffffff" d="M1954.22,2238.72" class="colorfff svgShape"></path><path fill="#f9b208" d="M1929.44,2200.8" class="colorf9b208 svgShape"></path><path fill="#ffffff" d="M2022.82 1305.61" class="colorfff svgShape"></path><path fill="#ffffff" d="M1987.33,2007.53c1.51,1.61-30.4,53.09-87.85,68.21c-41.74,10.99-80.55-1.54-80.41-3.62
		c0.13-1.98,35.34,6.45,77.7-5.6C1955.25,2049.88,1985.9,2006,1987.33,2007.53z" opacity=".5" class="colorfff svgShape"></path><path fill="#ffffff" d="M1874.89,2365.77c-24.46,51.43-30.08,94.43-30.94,122.86c0,0-2.61,86.1,61.88,232.88
		c0.3,0.67,2.16,4.9,4.58,10.72c2.72,6.55,6.22,15.33,9.98,25.8c0,0,12.89,35.93,20.93,73.9c10.5,49.58,25,175.97-19.01,311.35
		c-9.29,28.58-19.49,52.94-43.66,63.01c-19.31,8.04-46.82,6.96-85.84-15.12c0,0,31.33-73.83-31.33-133.68
		c-62.66-59.86-121.14-31.92-121.14-31.92s29.24-123.71-116.96-223.47c0,0-158.73-87.79-309.11,43.9c0,0-66.84,75.82-58.48,159.62
		c0,0-137.85-35.92-225.57,51.88s-45.95,179.58-45.95,179.58s-87.72-11.97-91.9,71.83c0,0-133.67,27.93-121.14,143.66
		c12.53,115.73,125.32,127.7,125.32,127.7h2422.79c0,0,171.27-19.95,162.91-143.66c-8.35-123.71-112.78-123.71-112.78-123.71
		s0-79.81-96.08-79.81c0,0,45.95-127.7-79.37-203.52c-125.32-75.82-200.51,0-200.51,0c3.44-18,14.27-85.79-23.76-151.72
		c-57.98-100.53-174.82-101.82-181.29-101.77c-16.27-3.35-98.81-18.52-175.32,36.82c-53.7,38.85-75.72,91.67-83.31,112.92
		c0,0-16.71,47.89-12.53,95.77c0,0-104.43-11.97-142.03,67.84c-37.59,79.81-4.18,111.74-4.18,111.74
		c-17.93,4.83-80.99,19.74-125.55-13.51c-23.64-17.64-32.72-41.84-37.7-57.51c-50.72-159.55,13.65-378.19,13.65-378.19
		c8.47-28.77,18.59-59.11,34.36-110.54c19.66-64.1,21.8-65.88,23.88-79.86c6.86-46.11-4.33-55.95-6.37-144.8
		c-0.93-40.6,1.26-45.09-3.64-59.15c-13.8-39.64-51.58-62.68-81.9-75.99c-55.87,8.55-111.74,17.1-167.61,25.65
		C1905.12,2326.75,1890,2346.26,1874.89,2365.77z" class="colorfff svgShape"></path><path d="M3220.01 3591.61H795.96l-.6-.06c-1.25-.13-31-3.46-62.51-21.95-29.41-17.25-65.93-51.35-72.91-115.83-5.61-51.78 15.43-95.31 60.83-125.89 23.94-16.12 48.5-24.47 60.97-28.01 2.76-23.21 12.03-41.5 27.64-54.45 19.01-15.77 43-19.65 59.01-20.25-2.85-10.86-5.67-26.48-5.38-45.16.51-33.05 11.19-82.53 59.2-130.58 37.91-37.94 90.9-59.45 153.23-62.18 28.96-1.28 53.52 1.72 68.31 4.27-.06-32.43 9.54-67.54 28.15-102.5 16.11-30.26 33.16-49.75 33.88-50.56l.49-.55.55-.49c35.57-31.15 74.64-52.95 116.11-64.79 33.24-9.49 68.03-12.62 103.4-9.3 60.15 5.64 100.9 27.86 102.61 28.81l.47.26.44.3c34.5 23.54 62.38 50.43 82.88 79.91 16.55 23.8 28.34 49.32 35.04 75.85 6.45 25.53 6.94 47.05 6.06 61.28 6.57-1.29 14.67-2.23 23.89-2.03 22.5.5 56.67 8.11 91.67 41.56 35.27 33.7 42.68 71.63 42.68 97.51 0 16.5-2.92 30.25-5.39 38.92 27.44 13.98 50.17 17.38 67.65 10.1 18.38-7.65 27.56-26.34 37.21-56.02 48.06-147.83 24.01-280.4 18.7-305.48-7.78-36.72-20.38-72.06-20.51-72.41-3.05-8.51-6.34-17.02-9.78-25.27-1.47-3.54-3.05-7.24-4.45-10.41l-.04-.1c-64.79-147.44-62.95-234.18-62.84-237.8 1.29-42.55 12.07-85.41 32.04-127.4l.53-1.11 48.87-63.1 175.37-26.83 3.03 1.33c46.45 20.38 76.08 48.19 88.08 82.67 4.02 11.56 4.02 18.23 4 34.35-.01 7.1-.02 15.93.27 28.28.91 39.59 3.61 62.87 5.78 81.58 2.68 23.1 4.45 38.37.47 65.16-1.4 9.42-2.84 13.89-8.21 30.52-3.33 10.33-8.36 25.94-16.05 51-7.36 24.01-13.44 43.25-18.8 60.23-6.16 19.52-11.03 34.93-15.52 50.19-.16.54-16.02 54.96-25.53 127.91-8.71 66.81-13.73 163.31 11.81 243.62 5.19 16.31 13.7 36.94 33.66 51.83 31.16 23.25 74.06 20.23 100.74 15.1-8.12-18.38-14.27-53.52 11.89-109.06 16.92-35.92 49.04-60.16 92.89-70.1 18.97-4.3 36.19-5.04 47.42-4.9-.86-44.92 13.15-85.65 13.8-87.52 9.94-27.83 34.47-80.11 87.38-118.38 34.04-24.63 73.06-38.94 115.96-42.54 28.56-2.4 52.13.55 67.19 3.56 14.14.18 130.75 4.79 189.97 107.46 28.27 49.02 31.05 99.56 28.56 132.81 9.22-5.31 21.15-10.84 35.58-14.81 21.53-5.92 44.3-7.21 67.69-3.84 28.8 4.15 58.57 15.42 88.46 33.51 68.75 41.6 88.04 98.43 92.11 138.78 2.7 26.74-.73 49.69-3.89 63.72 45.04 3.97 67.77 26.01 79.07 44.79 7.94 13.19 11.26 26.39 12.64 35.21 11.07 1.42 29.55 5.34 48.51 16.14 27.2 15.49 60.59 48.42 65.25 117.36 3.75 55.57-25.53 100.25-84.67 129.2-43.03 21.07-86.45 26.31-88.27 26.52L3220.01 3591.61zM797.26 3568.86h2421.36c5.23-.7 43.82-6.31 80.78-24.51 50.56-24.91 74.61-60.91 71.5-107-3.19-47.26-21.29-80.61-53.81-99.13-24.25-13.81-47.4-13.97-47.63-13.97h-11.38v-11.38c-.03-2.75-1.58-68.44-84.7-68.44h-16.18l5.48-15.23c.1-.28 10.7-30.69 6.6-69.21-5.4-50.79-32.7-91.41-81.16-120.72-48.72-29.48-94.87-38.74-137.17-27.51-31.53 8.36-49.23 25.65-49.4 25.82l-26.25 26.47 7.04-36.65c4.53-23.71 11.42-85.2-22.44-143.9-22.77-39.49-57.71-67.59-103.82-83.53-36.47-12.61-66.29-12.54-67.54-12.55l-1.2.01-1.17-.24c-21.58-4.44-97.33-15.04-166.36 34.9-47.91 34.66-70.21 82.19-79.24 107.48-.55 1.6-15.78 46.81-11.93 91l1.21 13.88-13.84-1.59c-.23-.03-25.09-2.69-53.74 3.93-36.96 8.53-62.76 27.87-76.7 57.46-17.52 37.2-18.2 62.29-15.69 76.78 2.49 14.35 8.36 21.09 9.15 21.94l15.72 13.94-20.68 5.21c-18.74 5.05-37.99 7.79-55.67 7.92-.47 0-.93.01-1.4.01-31.21 0-57.53-7.83-78.25-23.3-25.16-18.77-35.52-43.62-41.74-63.18-11.89-37.41-18.56-81-19.8-129.56-.99-38.57 1.42-80.39 7.16-124.29 9.76-74.63 25.55-128.73 26.21-131 4.55-15.47 9.45-30.98 15.65-50.61 5.35-16.93 11.41-36.13 18.75-60.05 7.73-25.22 12.8-40.92 16.15-51.31 5.16-15.99 6.23-19.32 7.35-26.88 3.54-23.81 2-37.12-.56-59.18-2.11-18.16-5-43.04-5.93-83.68-.29-12.63-.28-21.99-.27-28.83.01-15.3.02-18.93-2.74-26.85-9.59-27.55-34.05-50.41-72.74-67.98l-159.82 24.45-41.8 53.96c-18.27 38.77-28.14 78.2-29.32 117.22-.02.82-1.53 85.81 60.93 227.95l.04.09c1.48 3.36 3.08 7.11 4.63 10.84 3.57 8.6 7 17.45 10.18 26.32.54 1.5 13.25 37.1 21.35 75.39 5.52 26.07 30.53 163.88-19.32 317.22-9.35 28.75-20.91 57.84-50.1 69.99-26.01 10.83-58.25 5.54-95.82-15.72l-8.83-5 3.96-9.34c.06-.14 7.1-17.31 6.93-40.83-.23-30.84-12.22-57.81-35.64-80.19-23.51-22.46-48.85-34.31-75.31-35.23-19.8-.7-33 5.31-33.13 5.37l-21.44 10.24 5.53-23.15c.06-.26 6.58-29.67-3.93-70.14-14.06-54.17-50.35-101.59-107.88-140.97-4.27-2.24-41.64-21.18-94.24-25.93-73.78-6.67-141.35 16.25-200.86 68.12-5.59 6.61-62.67 76.15-55.26 150.47l1.62 16.26-15.81-4.12c-.32-.08-33.87-8.61-77.19-6.6-57.05 2.64-103.3 21.31-137.47 55.51-33.92 33.94-51.59 72.23-52.52 113.79-.7 31.23 8.8 52.85 8.9 53.07l8.36 18.68-20.27-2.73c-.33-.04-35.98-4.47-58.95 14.69-12.28 10.24-19.02 25.87-20.05 46.44l-.44 8.77-8.6 1.8c-.3.06-32.14 6.96-61.78 27.1-38.11 25.89-55.06 60.95-50.38 104.21 4.76 43.92 25.31 76.97 61.09 98.24C768.89 3564.55 793.42 3568.34 797.26 3568.86zM1809.5 1723.84" fill="#000000" class="color000 svgShape"></path><path fill="#fc5404" d="M1872.51,2307.93c-18.83,49.37-39.43,124.03-35.39,214.82c9.44,211.95,145.95,349.96,183.83,385.86
		c43.7-47.36,147.32-172.99,165.39-359.93c7.99-82.69-3.11-153.07-15.97-203.62l-106.16-116.97L1872.51,2307.93z" class="colorfc5404 svgShape"></path><path d="M2021.61,2928.04l-10.04-9.52c-39.72-37.64-75.97-82.49-104.84-129.7c-51.11-83.59-79.12-172.9-83.24-265.47
		c-3.31-74.39,8.89-148.51,36.27-220.3l2.09-5.48l206.01-85.79l114.91,126.62l0.84,3.29c17.53,68.91,23.02,138.99,16.32,208.3
		c-7.98,82.56-33.12,162.51-74.73,237.61c-25.91,46.77-57.61,90.59-94.22,130.26L2021.61,2928.04z M1883.22,2318.26
		c-24.6,66.57-35.52,135.14-32.46,203.89c8.13,182.64,114.33,311.66,169.55,366.8c54.08-61.38,136.8-179.63,152.45-341.57
		c6.29-65.06,1.31-130.87-14.78-195.66l-97.4-107.31L1883.22,2318.26z" fill="#000000" class="color000 svgShape"></path><path fill="#f9b208" d="M1900.83,2375.32c-11.6,35.12-21.85,81.45-20.59,135.75c3.76,162.1,107.2,271.71,138.9,302.9
		c34.6-47.11,57.71-89.99,72.8-121.95c20.76-43.95,42.51-90.97,49.14-153.8c3.13-29.68,2.25-56.74,1.82-66.43
		c-1.27-28.75-4.78-47.91-10.4-79.6c-21.06-118.79-23.02-135.97-37.68-142.42c-28.47-12.52-62.45,16.66-62.45,16.66
		C1988.53,2302.74,1944.68,2339.03,1900.83,2375.32z" class="colorf9b208 svgShape"></path><path fill="#ffe5e2" d="M1830.54,2301.67l-0.23,51.28c0,0,166.49,161.19,356.56,0.34l5.63-54.99l-186.97-59.28L1830.54,2301.67z" class="colorffe5e2 svgShape"></path><path d="M2010.17,2438.35c-25.57,0-51.29-3.96-76.87-11.86c-67.72-20.92-110.68-61.99-112.47-63.73l-4.18-4.05l0.29-66.67
		l188.33-67.43l201.95,64.03l-7.32,71.51l-4.2,3.56c-45.22,38.27-93.11,62.1-142.33,70.83
		C2039.05,2437.08,2024.63,2438.35,2010.17,2438.35z M1844,2346.87c11.83,10.15,47.97,38.5,98.35,53.83
		c80.16,24.4,158.03,6.12,231.52-54.33l3.93-38.41l-172-54.54l-161.64,57.87L1844,2346.87z" fill="#000000" class="color000 svgShape"></path><path fill="#ffe5e2" d="M2004.53,1391.36c0,0-226.7,138.77-222.87,633.41l3.32,229.22c0,0,38.42,88.65,218.75,94.48
		c0,0,134.73,2.96,242.32-86.76l-7.17-90.24l-9.22-60.7c0,0,18.96-211.59-41.23-404.45
		C2188.44,1706.32,2147.46,1522.59,2004.53,1391.36z" class="colorffe5e2 svgShape"></path><path d="M2005.37,2362.13c-1.11,0-1.76-0.01-1.94-0.02l-0.14,0c-186.82-6.05-229.12-98.76-230.83-102.7l-1.08-2.5l-3.36-232.04
		c-0.88-113.98,10.43-218.64,33.62-311.07c18.64-74.3,44.96-140.94,78.23-198.09c57.27-98.37,115.11-134.5,117.54-135.99l8.78-5.37
		l7.58,6.96c75.53,69.35,122.59,153.1,148.76,211.14c27,59.87,37.76,104.51,39.1,110.33c31.41,100.91,41.07,206.63,43.63,277.6
		c2.54,70.33-1.07,120.18-1.86,129.94l9.05,59.59l0.04,0.49l7.73,97.28l-5.42,4.52c-57.68,48.1-122.81,69.98-167.29,79.87
		C2045.15,2361.47,2013.41,2362.13,2005.37,2362.13z M2004.07,2334.82c1.34,0.02,33.89,0.37,78.31-9.59
		c39.9-8.95,97.63-28.25,149.49-69.58l-6.56-82.61l-9.39-61.85l0.15-1.64c0.05-0.52,4.65-53.27,1.9-128.64
		c-2.53-69.31-11.96-172.5-42.56-270.52l-0.17-0.54l-0.12-0.55c-0.1-0.44-10.43-45.81-37.77-106.29
		c-24.15-53.42-66.74-129.53-133.99-194.03c-17.44,13.44-59.57,50.57-101.03,122.43c-49.89,86.46-108.95,242.21-107.01,493.22
		l3.27,225.95c3.24,5.7,13.94,22.04,37.94,38.66C1864.27,2308.44,1915.85,2331.95,2004.07,2334.82z" fill="#000000" class="color000 svgShape"></path><path fill="#e93b81" d="M1781.96,2045.06c0,0-110.18,54.25-117.37,316.03c0,0,44.32-115.07,120.39-107.11
		C1784.98,2253.98,1806.58,2194.25,1781.96,2045.06z" class="colore93b81 svgShape"></path><path d="M1648.78,2439.75l2.16-79.03c7.32-266.94,120.18-325.53,124.98-327.9l16.5-8.13l3,18.15
		c24.92,150.97,3.33,213.21,2.4,215.78l-3.63,10.05l-10.63-1.11c-64.73-6.79-105.83,97.39-106.24,98.45L1648.78,2439.75z
		 M1771.91,2069.48c-9.7,8.83-22.66,23.11-35.77,44.97c-20.37,33.97-44.53,92.38-54.08,186.35c20.71-29.29,51.8-59.48,92.42-60.83
		C1778.65,2219.81,1785.7,2166.13,1771.91,2069.48z" fill="#000000" class="color000 svgShape"></path><path fill="#e93b81" d="M2230.78,2045.71c0,0,115,45.04,147.02,305.24c0,0-55.11-111.01-130.2-96.87
		C2247.6,2254.08,2220.4,2196.34,2230.78,2045.71z" class="colore93b81 svgShape"></path><path d="M2401.11,2428.6l-35.53-71.58c-0.5-1.01-51.44-101.59-115.45-89.52l-10.38,1.95l-4.5-9.55
		c-1.17-2.49-28.6-62.7-18.09-215.13l1.28-18.55l17.32,6.78c5.01,1.96,122.95,51.06,155.59,316.28L2401.11,2428.6z M2261.02,2239.16
		c38.7,0,70.98,26.49,93.58,52.97c-18.46-92.67-48.07-148.82-71.6-180.97c-15.14-20.68-29.41-33.86-39.92-41.87
		c-4.63,98.26,7.52,150.55,13.62,169.98C2258.15,2239.2,2259.59,2239.16,2261.02,2239.16z" fill="#000000" class="color000 svgShape"></path><path fill="#e93b81" d="M2001.44,2051.68c-2.67-5.4-93.25,199.79,10.23,380.34C2011.67,2432.03,2107.73,2266.43,2001.44,2051.68z" class="colore93b81 svgShape"></path><path d="M2011.6,2459.35l-11.77-20.54c-23.01-40.16-38.48-84.61-45.97-132.13c-6.1-38.73-6.94-79.49-2.5-121.15
		c7.79-72.97,29.71-127.65,36.81-139.31c3.49-5.74,8.1-8.53,13.72-8.28c5.03,0.22,9.54,3.17,11.78,7.69v0
		c24.91,50.34,40.98,102.26,47.74,154.32c5.42,41.74,4.91,83.65-1.52,124.56c-11,69.96-35.39,112.59-36.42,114.37L2011.6,2459.35z
		 M2001.46,2084.41c-7.89,22.57-17.92,58.83-22.71,101.83c-6.21,55.75-4.96,136.12,32.21,214.91c7.38-18.37,16.69-46.57,22.17-82.13
		C2041.59,2264.01,2042.2,2180.45,2001.46,2084.41z M1989.2,2057.74c0,0.01,0.01,0.02,0.01,0.03
		C1989.21,2057.76,1989.2,2057.74,1989.2,2057.74L1989.2,2057.74z" fill="#000000" class="color000 svgShape"></path><path fill="#e93b81" d="M1847.17,1615.35c0,0,133.87,111.93,312.24,4.31c0,0-65.74-157.81-160.51-226.28
		C1998.9,1393.38,1918.05,1440.81,1847.17,1615.35z" class="colore93b81 svgShape"></path><path d="M2002.81,1680.04c-23.53,0-46.9-3-69.85-8.98c-58.06-15.13-93.08-44.03-94.54-45.25l-7.64-6.39l3.75-9.22
		c71.8-176.8,154-226.57,157.47-228.61l7.68-4.51l7.22,5.22c40.84,29.51,81.07,77.6,119.56,142.96
		c28.43,48.27,44.87,87.5,45.55,89.14l4.52,10.86l-10.07,6.08c-42.34,25.54-85.88,41.22-129.42,46.58
		C2025.62,1679.34,2014.2,1680.04,2002.81,1680.04z M1863.87,1610.67c12.65,8.61,39.79,24.74,77.16,34.29
		c66.5,16.98,134.04,6.57,200.94-30.94c-16.07-35.14-70.8-146.48-143.37-203.75c-8.07,6.2-22.34,18.46-39.93,39.04
		C1934.14,1478.03,1898.17,1529.03,1863.87,1610.67z" fill="#000000" class="color000 svgShape"></path><g opacity=".25" fill="#000000" class="color000 svgShape"><ellipse cx="2015.21" cy="1871.56" rx="134.61" ry="135.6" transform="rotate(-32.456 2015.168 1871.412)" fill="#000000" class="color000 svgShape"></ellipse><path d="M2016.35,2020.48c-49.31,0-97.74-24.55-126.24-69.36c-44.17-69.44-23.98-161.63,45-205.5
		c33.43-21.26,73.19-28.14,111.97-19.36c38.73,8.77,71.84,32.11,93.23,65.74c21.38,33.62,28.49,73.51,20.01,112.31
		c-8.49,38.84-31.58,71.93-65.01,93.2C2070.84,2013.06,2043.46,2020.48,2016.35,2020.48z M2014.08,1749.85
		c-22.63,0-44.8,6.39-64.31,18.81c-56.28,35.79-72.7,111.07-36.61,167.81c23.3,36.63,62.88,56.72,103.16,56.72
		c22.1,0,44.41-6.05,64.35-18.73c27.25-17.33,46.06-44.32,52.99-75.99c6.93-31.71,1.12-64.32-16.37-91.82v0
		c-17.49-27.5-44.56-46.59-76.22-53.76C2032.08,1750.85,2023.04,1749.85,2014.08,1749.85z" fill="#000000" class="color000 svgShape"></path></g><ellipse cx="2001.7" cy="1855.91" fill="#e93b81" rx="134.61" ry="135.6" transform="rotate(-32.456 2001.654 1855.769)" class="colore93b81 svgShape"></ellipse><path d="M2002.88,2004.93c-10.99,0-22.06-1.23-33.06-3.72c-38.74-8.77-71.84-32.11-93.23-65.74
		c-21.39-33.62-28.49-73.51-20.01-112.31c8.49-38.84,31.58-71.93,65.01-93.2c68.98-43.87,161.03-23.07,205.2,46.37v0
		c21.38,33.62,28.49,73.51,20.01,112.31c-8.49,38.84-31.58,71.93-65.01,93.2C2057.85,1997.08,2030.64,2004.93,2002.88,2004.93z
		 M2000.6,1734.28c-22.1,0-44.41,6.05-64.35,18.73c-27.25,17.33-46.06,44.32-52.99,75.99c-6.93,31.71-1.12,64.32,16.37,91.82
		c17.49,27.5,44.56,46.59,76.22,53.76c31.62,7.16,64.04,1.56,91.29-15.77c27.25-17.33,46.06-44.32,52.99-75.99
		c6.93-31.71,1.12-64.32-16.37-91.82C2080.46,1754.37,2040.87,1734.28,2000.6,1734.28z" fill="#000000" class="color000 svgShape"></path><g opacity=".5" fill="#000000" class="color000 svgShape"><ellipse cx="2007.66" cy="1862.03" fill="#8be9ff" rx="82.27" ry="81.79" transform="rotate(-32.454 2007.868 1862.161)" class="color8be9ff svgShape"></ellipse><path fill="#ffffff" d="M2007.15,1957.66c-13.91,0-27.75-3.06-40.69-9.16c-23.03-10.84-40.43-29.99-49.01-53.93
		c-17.75-49.53,8.25-104.44,57.97-122.41c24.18-8.73,50.26-7.53,73.44,3.38c23.03,10.84,40.44,29.99,49.01,53.93
		c17.75,49.53-8.25,104.45-57.97,122.41C2029.22,1955.74,2018.16,1957.66,2007.15,1957.66z M2008.14,1793.71
		c-7.88,0-15.8,1.37-23.45,4.14c-35.59,12.86-54.23,52.12-41.54,87.52c6.11,17.06,18.52,30.71,34.94,38.44
		c16.57,7.8,35.23,8.65,52.53,2.4c35.59-12.86,54.23-52.12,41.54-87.52l0,0c-6.11-17.06-18.52-30.71-34.94-38.44
		C2027.98,1795.9,2018.08,1793.71,2008.14,1793.71z" class="colorfff svgShape"></path></g><ellipse cx="2001.83" cy="1854.74" fill="#8be9ff" rx="82.27" ry="82.88" transform="rotate(-32.456 2001.773 1854.587)" class="color8be9ff svgShape"></ellipse><path d="M2002.47,1951.1c-39.5,0-76.73-24.6-90.97-63.98c-8.8-24.35-7.6-50.6,3.38-73.93c10.89-23.14,30.13-40.62,54.17-49.23
		c49.79-17.83,105.01,8.36,123.1,58.38c8.8,24.35,7.6,50.6-3.38,73.93c-10.89,23.14-30.13,40.62-54.17,49.22
		C2024.01,1949.3,2013.15,1951.1,2002.47,1951.1z M2001.22,1785.68c-7.64,0-15.39,1.29-22.97,4c-17.16,6.14-30.89,18.63-38.67,35.15
		c-7.87,16.71-8.72,35.54-2.4,53.01c12.98,35.91,52.56,54.73,88.22,41.96c17.16-6.14,30.89-18.63,38.67-35.15
		c7.87-16.71,8.72-35.54,2.4-53.01C2056.25,1803.36,2029.53,1785.68,2001.22,1785.68z" fill="#000000" class="color000 svgShape"></path><path d="M2244.27 2060.75c0 0-2.4 120.93 71.03 187.35 73.43 66.42 55.84 114.42 55.84 114.42s-8.95-67.6-76.73-101.87c-67.78-34.26-46.81-6.57-46.81-6.57s-24.59-155.11-15.52-192.08C2241.15 2025.02 2244.27 2060.75 2244.27 2060.75zM1772 2059.46c0 0 23.21 103.75-95.66 260.15 0 0 55.34-76.9 108.46-78.16C1784.8 2241.45 1802.66 2086.65 1772 2059.46z" opacity=".25" fill="#000000" class="color000 svgShape"></path><path d="M1783.14 2052.38c0 0 57.86 491.1 200.59 10.68 0 0-42.88 208.19-13.36 258.32 29.51 50.13-2.49 16.62-2.49 16.62s-146.2-8.47-184.93-86.18M1995.85 2070.66c0 0 61.8 238.96 15.89 361.53C2011.74 2432.19 2095.8 2216.33 1995.85 2070.66z" opacity=".25" fill="#000000" class="color000 svgShape"></path><path fill="#ffffff" d="M1982.29,2242.84c0.98,21.36,4.21,38.59,7.2,38.47c2.99-0.12,4.62-17.54,3.64-38.9
		c-0.99-21.36-4.21-38.59-7.2-38.47C1982.93,2204.06,1981.3,2221.48,1982.29,2242.84z" class="colorfff svgShape"></path><defs><path id="a" d="M759.52,2168.74" fill="#000000" class="color000 svgShape"></path></defs><clipPath id="b"><use overflow="visible" xlink:href="#a"></use></clipPath><path fill="#ffffff" d="M759.52 2168.74L759.52 2168.74 759.52 2168.74zM759.52 2168.74L759.52 2168.74 759.52 2168.74z" clip-path="url(#b)" class="colorfff svgShape"></path><path fill="#fefefe" d="M759.52,2168.74L759.52,2168.74L759.52,2168.74z" clip-path="url(#b)" class="colorfefefe svgShape"></path><path fill="#fdfdfd" d="M759.52,2168.74L759.52,2168.74L759.52,2168.74z" clip-path="url(#b)" class="colorfdfdfd svgShape"></path><path fill="#fcfcfc" d="M759.52,2168.74L759.52,2168.74L759.52,2168.74z" clip-path="url(#b)" class="colorfcfcfc svgShape"></path><path fill="#fbfbfb" d="M759.52,2168.74L759.52,2168.74L759.52,2168.74z" clip-path="url(#b)" class="colorfbfbfb svgShape"></path><path fill="#fafafa" d="M759.52,2168.74L759.52,2168.74L759.52,2168.74z" clip-path="url(#b)" class="colorfafafa svgShape"></path><path fill="#f9f9f9" d="M759.52,2168.74L759.52,2168.74L759.52,2168.74z" clip-path="url(#b)" class="colorf9f9f9 svgShape"></path><path fill="#f8f8f8" d="M759.52,2168.74L759.52,2168.74L759.52,2168.74z" clip-path="url(#b)" class="colorf8f8f8 svgShape"></path><path fill="#f7f7f7" d="M759.52,2168.74L759.52,2168.74L759.52,2168.74z" clip-path="url(#b)" class="colorf7f7f7 svgShape"></path><path fill="#f6f6f6" d="M759.52,2168.74L759.52,2168.74L759.52,2168.74z" clip-path="url(#b)" class="colorf6f6f6 svgShape"></path><path fill="#f5f5f5" d="M759.52,2168.74L759.52,2168.74L759.52,2168.74z" clip-path="url(#b)" class="colorf5f5f5 svgShape"></path><path fill="#f4f4f4" d="M759.52,2168.74L759.52,2168.74L759.52,2168.74z" clip-path="url(#b)" class="colorf4f4f4 svgShape"></path><path fill="#f3f3f3" d="M759.52,2168.74L759.52,2168.74L759.52,2168.74z" clip-path="url(#b)" class="colorf3f3f3 svgShape"></path><path fill="#f2f2f2" d="M759.52,2168.74L759.52,2168.74L759.52,2168.74z" clip-path="url(#b)" class="colorf2f2f2 svgShape"></path><path fill="#f1f1f1" d="M759.52,2168.74L759.52,2168.74L759.52,2168.74z" clip-path="url(#b)" class="colorf1f1f1 svgShape"></path><path fill="#f0f0f0" d="M759.52,2168.74L759.52,2168.74L759.52,2168.74z" clip-path="url(#b)" class="colorf0f0f0 svgShape"></path><path fill="#efefef" d="M759.52,2168.74L759.52,2168.74L759.52,2168.74z" clip-path="url(#b)" class="colorefefef svgShape"></path><path fill="#eeeeee" d="M759.52,2168.74L759.52,2168.74L759.52,2168.74z" clip-path="url(#b)" class="coloreee svgShape"></path><path fill="#ededed" d="M759.52,2168.74L759.52,2168.74L759.52,2168.74z" clip-path="url(#b)" class="colorededed svgShape"></path><path fill="#ececec" d="M759.52,2168.74L759.52,2168.74L759.52,2168.74z" clip-path="url(#b)" class="colorececec svgShape"></path><path fill="#ebebeb" d="M759.52,2168.74L759.52,2168.74L759.52,2168.74z" clip-path="url(#b)" class="colorebebeb svgShape"></path><path fill="#eaeaea" d="M759.52,2168.74L759.52,2168.74L759.52,2168.74z" clip-path="url(#b)" class="coloreaeaea svgShape"></path><path fill="#e9e9e9" d="M759.52,2168.74L759.52,2168.74L759.52,2168.74z" clip-path="url(#b)" class="colore9e9e9 svgShape"></path><path fill="#e8e8e8" d="M759.52,2168.74L759.52,2168.74L759.52,2168.74z" clip-path="url(#b)" class="colore8e8e8 svgShape"></path><path fill="#e7e7e7" d="M759.52,2168.74L759.52,2168.74L759.52,2168.74z" clip-path="url(#b)" class="colore7e7e7 svgShape"></path><path fill="#e6e6e6" d="M759.52,2168.74L759.52,2168.74L759.52,2168.74z" clip-path="url(#b)" class="colore6e6e6 svgShape"></path><path fill="#e5e5e5" d="M759.52,2168.74L759.52,2168.74L759.52,2168.74z" clip-path="url(#b)" class="colore5e5e5 svgShape"></path><path fill="#e4e4e4" d="M759.52,2168.74L759.52,2168.74L759.52,2168.74z" clip-path="url(#b)" class="colore4e4e4 svgShape"></path><path fill="#e3e3e3" d="M759.52,2168.74L759.52,2168.74L759.52,2168.74z" clip-path="url(#b)" class="colore3e3e3 svgShape"></path><path fill="#e2e2e2" d="M759.52,2168.74L759.52,2168.74L759.52,2168.74z" clip-path="url(#b)" class="colore2e2e2 svgShape"></path><path fill="#e1e1e1" d="M759.52,2168.74L759.52,2168.74L759.52,2168.74z" clip-path="url(#b)" class="colore1e1e1 svgShape"></path><path fill="#e0e0e0" d="M759.52,2168.74L759.52,2168.74L759.52,2168.74z" clip-path="url(#b)" class="colore0e0e0 svgShape"></path><path fill="#dfdfdf" d="M759.52,2168.74L759.52,2168.74L759.52,2168.74z" clip-path="url(#b)" class="colordfdfdf svgShape"></path><path fill="#dedede" d="M759.52,2168.74L759.52,2168.74L759.52,2168.74z" clip-path="url(#b)" class="colordedede svgShape"></path><path fill="#dddddd" d="M759.52,2168.74L759.52,2168.74L759.52,2168.74z" clip-path="url(#b)" class="colorddd svgShape"></path><path fill="#dcdcdc" d="M759.52,2168.74L759.52,2168.74L759.52,2168.74z" clip-path="url(#b)" class="colordcdcdc svgShape"></path><path fill="#dbdbdb" d="M759.52,2168.74L759.52,2168.74L759.52,2168.74z" clip-path="url(#b)" class="colordbdbdb svgShape"></path><path fill="#dadada" d="M759.52,2168.74L759.52,2168.74L759.52,2168.74z" clip-path="url(#b)" class="colordadada svgShape"></path><path fill="#d9d9d9" d="M759.52,2168.74L759.52,2168.74L759.52,2168.74z" clip-path="url(#b)" class="colord9d9d9 svgShape"></path><path fill="#d8d8d8" d="M759.52,2168.74L759.52,2168.74L759.52,2168.74z" clip-path="url(#b)" class="colord8d8d8 svgShape"></path><path fill="#d7d7d7" d="M759.52,2168.74L759.52,2168.74L759.52,2168.74z" clip-path="url(#b)" class="colord7d7d7 svgShape"></path><path fill="#d6d6d6" d="M759.52,2168.74L759.52,2168.74L759.52,2168.74z" clip-path="url(#b)" class="colord6d6d6 svgShape"></path><path fill="#d5d5d5" d="M759.52,2168.74L759.52,2168.74L759.52,2168.74z" clip-path="url(#b)" class="colord5d5d5 svgShape"></path><path fill="#d4d4d4" d="M759.52,2168.74L759.52,2168.74L759.52,2168.74z" clip-path="url(#b)" class="colord4d4d4 svgShape"></path><path fill="#d3d3d3" d="M759.52,2168.74L759.52,2168.74L759.52,2168.74z" clip-path="url(#b)" class="colord3d3d3 svgShape"></path><path fill="#d2d2d2" d="M759.52,2168.74L759.52,2168.74L759.52,2168.74z" clip-path="url(#b)" class="colord2d2d2 svgShape"></path><path fill="#d1d1d1" d="M759.52,2168.74L759.52,2168.74L759.52,2168.74z" clip-path="url(#b)" class="colord1d1d1 svgShape"></path><path fill="#d0d0d0" d="M759.52,2168.74L759.52,2168.74L759.52,2168.74z" clip-path="url(#b)" class="colord0d0d0 svgShape"></path><path fill="#cfcfcf" d="M759.52,2168.74L759.52,2168.74L759.52,2168.74z" clip-path="url(#b)" class="colorcfcfcf svgShape"></path><path fill="#cecece" d="M759.52,2168.74L759.52,2168.74L759.52,2168.74z" clip-path="url(#b)" class="colorcecece svgShape"></path><path fill="#cdcdcd" d="M759.52,2168.74L759.52,2168.74L759.52,2168.74z" clip-path="url(#b)" class="colorcdcdcd svgShape"></path><path fill="#cccccc" d="M759.52,2168.74L759.52,2168.74L759.52,2168.74z" clip-path="url(#b)" class="colorccc svgShape"></path><path fill="#cbcbcb" d="M759.52,2168.74L759.52,2168.74L759.52,2168.74z" clip-path="url(#b)" class="colorcbcbcb svgShape"></path><path fill="#cacaca" d="M759.52,2168.74L759.52,2168.74L759.52,2168.74z" clip-path="url(#b)" class="colorcacaca svgShape"></path><path fill="#c9c9c9" d="M759.52,2168.74L759.52,2168.74L759.52,2168.74z" clip-path="url(#b)" class="colorc9c9c9 svgShape"></path><path fill="#c8c8c8" d="M759.52,2168.74L759.52,2168.74L759.52,2168.74z" clip-path="url(#b)" class="colorc8c8c8 svgShape"></path><path fill="#c7c7c7" d="M759.52,2168.74L759.52,2168.74L759.52,2168.74z" clip-path="url(#b)" class="colorc7c7c7 svgShape"></path><path fill="#c6c6c6" d="M759.52,2168.74L759.52,2168.74L759.52,2168.74z" clip-path="url(#b)" class="colorc6c6c6 svgShape"></path><path fill="#c5c5c5" d="M759.52,2168.74L759.52,2168.74L759.52,2168.74z" clip-path="url(#b)" class="colorc5c5c5 svgShape"></path><path fill="#c4c4c4" d="M759.52,2168.74L759.52,2168.74L759.52,2168.74z" clip-path="url(#b)" class="colorc4c4c4 svgShape"></path><path fill="#c3c3c3" d="M759.52,2168.74L759.52,2168.74L759.52,2168.74z" clip-path="url(#b)" class="colorc3c3c3 svgShape"></path><path fill="#c2c2c2" d="M759.52,2168.74L759.52,2168.74L759.52,2168.74z" clip-path="url(#b)" class="colorc2c2c2 svgShape"></path><path fill="#c1c1c1" d="M759.52,2168.74L759.52,2168.74L759.52,2168.74z" clip-path="url(#b)" class="colorc1c1c1 svgShape"></path><path fill="silver" d="M759.52,2168.74L759.52,2168.74L759.52,2168.74z" clip-path="url(#b)" class="colorsilver svgShape"></path><path fill="#bfbfbf" d="M759.52,2168.74L759.52,2168.74L759.52,2168.74z" clip-path="url(#b)" class="colorbfbfbf svgShape"></path><path fill="#bebebe" d="M759.52,2168.74L759.52,2168.74L759.52,2168.74z" clip-path="url(#b)" class="colorbebebe svgShape"></path><path fill="#bdbdbd" d="M759.52,2168.74L759.52,2168.74L759.52,2168.74z" clip-path="url(#b)" class="colorbdbdbd svgShape"></path><path fill="#bcbcbc" d="M759.52,2168.74L759.52,2168.74L759.52,2168.74z" clip-path="url(#b)" class="colorbcbcbc svgShape"></path><path fill="#bbbbbb" d="M759.52,2168.74L759.52,2168.74L759.52,2168.74z" clip-path="url(#b)" class="colorbbb svgShape"></path><path fill="#bababa" d="M759.52,2168.74L759.52,2168.74L759.52,2168.74z" clip-path="url(#b)" class="colorbababa svgShape"></path><path fill="#b9b9b9" d="M759.52,2168.74L759.52,2168.74L759.52,2168.74z" clip-path="url(#b)" class="colorb9b9b9 svgShape"></path><path fill="#b8b8b8" d="M759.52,2168.74L759.52,2168.74L759.52,2168.74z" clip-path="url(#b)" class="colorb8b8b8 svgShape"></path><path fill="#b7b7b7" d="M759.52,2168.74L759.52,2168.74L759.52,2168.74z" clip-path="url(#b)" class="colorb7b7b7 svgShape"></path><path fill="#b6b6b6" d="M759.52,2168.74L759.52,2168.74L759.52,2168.74z" clip-path="url(#b)" class="colorb6b6b6 svgShape"></path><path fill="#b5b5b5" d="M759.52,2168.74L759.52,2168.74L759.52,2168.74z" clip-path="url(#b)" class="colorb5b5b5 svgShape"></path><path fill="#b4b4b4" d="M759.52,2168.74L759.52,2168.74L759.52,2168.74z" clip-path="url(#b)" class="colorb4b4b4 svgShape"></path><path fill="#b3b3b3" d="M759.52,2168.74L759.52,2168.74L759.52,2168.74z" clip-path="url(#b)" class="colorb3b3b3 svgShape"></path><path fill="#b2b2b2" d="M759.52,2168.74L759.52,2168.74L759.52,2168.74z" clip-path="url(#b)" class="colorb2b2b2 svgShape"></path><path fill="#b1b1b1" d="M759.52,2168.74L759.52,2168.74L759.52,2168.74z" clip-path="url(#b)" class="colorb1b1b1 svgShape"></path><path fill="#b0b0b0" d="M759.52,2168.74L759.52,2168.74L759.52,2168.74z" clip-path="url(#b)" class="colorb0b0b0 svgShape"></path><path fill="#afafaf" d="M759.52,2168.74L759.52,2168.74L759.52,2168.74z" clip-path="url(#b)" class="colorafafaf svgShape"></path><path fill="#aeaeae" d="M759.52,2168.74L759.52,2168.74L759.52,2168.74z" clip-path="url(#b)" class="coloraeaeae svgShape"></path><path fill="#adadad" d="M759.52,2168.74L759.52,2168.74L759.52,2168.74z" clip-path="url(#b)" class="coloradadad svgShape"></path><path fill="#acacac" d="M759.52,2168.74L759.52,2168.74L759.52,2168.74z" clip-path="url(#b)" class="coloracacac svgShape"></path><path fill="#ababab" d="M759.52,2168.74L759.52,2168.74L759.52,2168.74z" clip-path="url(#b)" class="colorababab svgShape"></path><path fill="#aaaaaa" d="M759.52,2168.74L759.52,2168.74L759.52,2168.74z" clip-path="url(#b)" class="coloraaa svgShape"></path><path fill="#a9a9a9" d="M759.52,2168.74L759.52,2168.74L759.52,2168.74z" clip-path="url(#b)" class="colora9a9a9 svgShape"></path><path fill="#a8a8a8" d="M759.52,2168.74L759.52,2168.74L759.52,2168.74z" clip-path="url(#b)" class="colora8a8a8 svgShape"></path><path fill="#a7a7a7" d="M759.52,2168.74L759.52,2168.74L759.52,2168.74z" clip-path="url(#b)" class="colora7a7a7 svgShape"></path><path fill="#a6a6a6" d="M759.52,2168.74L759.52,2168.74L759.52,2168.74z" clip-path="url(#b)" class="colora6a6a6 svgShape"></path><path fill="#a5a5a5" d="M759.52,2168.74L759.52,2168.74L759.52,2168.74z" clip-path="url(#b)" class="colora5a5a5 svgShape"></path><path fill="#a4a4a4" d="M759.52,2168.74L759.52,2168.74L759.52,2168.74z" clip-path="url(#b)" class="colora4a4a4 svgShape"></path><path fill="#a3a3a3" d="M759.52,2168.74L759.52,2168.74L759.52,2168.74z" clip-path="url(#b)" class="colora3a3a3 svgShape"></path><path fill="#a2a2a2" d="M759.52,2168.74L759.52,2168.74L759.52,2168.74z" clip-path="url(#b)" class="colora2a2a2 svgShape"></path><path fill="#a1a1a1" d="M759.52,2168.74L759.52,2168.74L759.52,2168.74z" clip-path="url(#b)" class="colora1a1a1 svgShape"></path><path fill="#a0a0a0" d="M759.52,2168.74L759.52,2168.74L759.52,2168.74z" clip-path="url(#b)" class="colora0a0a0 svgShape"></path><path fill="#9f9f9f" d="M759.52,2168.74L759.52,2168.74L759.52,2168.74z" clip-path="url(#b)" class="color9f9f9f svgShape"></path><path fill="#9e9e9e" d="M759.52,2168.74L759.52,2168.74L759.52,2168.74z" clip-path="url(#b)" class="color9e9e9e svgShape"></path><path fill="#9d9d9d" d="M759.52,2168.74L759.52,2168.74L759.52,2168.74z" clip-path="url(#b)" class="color9d9d9d svgShape"></path><path fill="#9c9c9c" d="M759.52,2168.74L759.52,2168.74L759.52,2168.74z" clip-path="url(#b)" class="color9c9c9c svgShape"></path><path fill="#9b9b9b" d="M759.52,2168.74L759.52,2168.74L759.52,2168.74z" clip-path="url(#b)" class="color9b9b9b svgShape"></path><path fill="#9a9a9a" d="M759.52,2168.74L759.52,2168.74L759.52,2168.74z" clip-path="url(#b)" class="color9a9a9a svgShape"></path><path fill="#999999" d="M759.52,2168.74L759.52,2168.74L759.52,2168.74z" clip-path="url(#b)" class="color999 svgShape"></path><path fill="#989898" d="M759.52,2168.74L759.52,2168.74L759.52,2168.74z" clip-path="url(#b)" class="color989898 svgShape"></path><path fill="#979797" d="M759.52,2168.74L759.52,2168.74L759.52,2168.74z" clip-path="url(#b)" class="color979797 svgShape"></path><path fill="#969696" d="M759.52,2168.74L759.52,2168.74L759.52,2168.74z" clip-path="url(#b)" class="color969696 svgShape"></path><path fill="#959595" d="M759.52,2168.74L759.52,2168.74L759.52,2168.74z" clip-path="url(#b)" class="color959595 svgShape"></path><path fill="#949494" d="M759.52,2168.74L759.52,2168.74L759.52,2168.74z" clip-path="url(#b)" class="color949494 svgShape"></path><path fill="#939393" d="M759.52,2168.74L759.52,2168.74L759.52,2168.74z" clip-path="url(#b)" class="color939393 svgShape"></path><path fill="#929292" d="M759.52,2168.74L759.52,2168.74L759.52,2168.74z" clip-path="url(#b)" class="color929292 svgShape"></path><path fill="#919191" d="M759.52,2168.74L759.52,2168.74L759.52,2168.74z" clip-path="url(#b)" class="color919191 svgShape"></path><path fill="#909090" d="M759.52,2168.74L759.52,2168.74L759.52,2168.74z" clip-path="url(#b)" class="color909090 svgShape"></path><path fill="#8f8f8f" d="M759.52,2168.74L759.52,2168.74L759.52,2168.74z" clip-path="url(#b)" class="color8f8f8f svgShape"></path><path fill="#8e8e8e" d="M759.52,2168.74L759.52,2168.74L759.52,2168.74z" clip-path="url(#b)" class="color8e8e8e svgShape"></path><path fill="#8d8d8d" d="M759.52,2168.74L759.52,2168.74L759.52,2168.74z" clip-path="url(#b)" class="color8d8d8d svgShape"></path><path fill="#8c8c8c" d="M759.52,2168.74L759.52,2168.74L759.52,2168.74z" clip-path="url(#b)" class="color8c8c8c svgShape"></path><path fill="#8b8b8b" d="M759.52,2168.74L759.52,2168.74L759.52,2168.74z" clip-path="url(#b)" class="color8b8b8b svgShape"></path><path fill="#8a8a8a" d="M759.52,2168.74L759.52,2168.74L759.52,2168.74z" clip-path="url(#b)" class="color8a8a8a svgShape"></path><path fill="#898989" d="M759.52,2168.74L759.52,2168.74L759.52,2168.74z" clip-path="url(#b)" class="color898989 svgShape"></path><path fill="#888888" d="M759.52,2168.74L759.52,2168.74L759.52,2168.74z" clip-path="url(#b)" class="color888 svgShape"></path><path fill="#878787" d="M759.52,2168.74L759.52,2168.74L759.52,2168.74z" clip-path="url(#b)" class="color878787 svgShape"></path><path fill="#868686" d="M759.52,2168.74L759.52,2168.74L759.52,2168.74z" clip-path="url(#b)" class="color868686 svgShape"></path><path fill="#858585" d="M759.52,2168.74L759.52,2168.74L759.52,2168.74z" clip-path="url(#b)" class="color858585 svgShape"></path><path fill="#848484" d="M759.52,2168.74L759.52,2168.74L759.52,2168.74z" clip-path="url(#b)" class="color848484 svgShape"></path><path fill="#838383" d="M759.52,2168.74L759.52,2168.74L759.52,2168.74z" clip-path="url(#b)" class="color838383 svgShape"></path><path fill="#828282" d="M759.52,2168.74L759.52,2168.74L759.52,2168.74z" clip-path="url(#b)" class="color828282 svgShape"></path><path fill="#818181" d="M759.52,2168.74L759.52,2168.74L759.52,2168.74z" clip-path="url(#b)" class="color818181 svgShape"></path><path fill="gray" d="M759.52,2168.74L759.52,2168.74L759.52,2168.74z" clip-path="url(#b)" class="colorgray svgShape"></path><path fill="#7e7e7e" d="M759.52,2168.74L759.52,2168.74L759.52,2168.74z" clip-path="url(#b)" class="color7e7e7e svgShape"></path><path fill="#7d7d7d" d="M759.52,2168.74L759.52,2168.74L759.52,2168.74z" clip-path="url(#b)" class="color7d7d7d svgShape"></path><path fill="#7c7c7c" d="M759.52,2168.74L759.52,2168.74L759.52,2168.74z" clip-path="url(#b)" class="color7c7c7c svgShape"></path><path fill="#7b7b7b" d="M759.52,2168.74L759.52,2168.74L759.52,2168.74z" clip-path="url(#b)" class="color7b7b7b svgShape"></path><path fill="#7a7a7a" d="M759.52,2168.74L759.52,2168.74L759.52,2168.74z" clip-path="url(#b)" class="color7a7a7a svgShape"></path><path fill="#797979" d="M759.52,2168.74L759.52,2168.74L759.52,2168.74z" clip-path="url(#b)" class="color797979 svgShape"></path><path fill="#787878" d="M759.52,2168.74L759.52,2168.74L759.52,2168.74z" clip-path="url(#b)" class="color787878 svgShape"></path><path fill="#777777" d="M759.52,2168.74L759.52,2168.74L759.52,2168.74z" clip-path="url(#b)" class="color777 svgShape"></path><path fill="#767676" d="M759.52,2168.74L759.52,2168.74L759.52,2168.74z" clip-path="url(#b)" class="color767676 svgShape"></path><path fill="#757575" d="M759.52,2168.74L759.52,2168.74L759.52,2168.74z" clip-path="url(#b)" class="color757575 svgShape"></path><path fill="#747474" d="M759.52,2168.74L759.52,2168.74L759.52,2168.74z" clip-path="url(#b)" class="color747474 svgShape"></path><path fill="#737373" d="M759.52,2168.74L759.52,2168.74L759.52,2168.74z" clip-path="url(#b)" class="color737373 svgShape"></path><path fill="#727272" d="M759.52,2168.74L759.52,2168.74L759.52,2168.74z" clip-path="url(#b)" class="color727272 svgShape"></path><path fill="#717171" d="M759.52,2168.74L759.52,2168.74L759.52,2168.74z" clip-path="url(#b)" class="color717171 svgShape"></path><path fill="#707070" d="M759.52,2168.74L759.52,2168.74L759.52,2168.74z" clip-path="url(#b)" class="color707070 svgShape"></path><path fill="#6f6f6f" d="M759.52,2168.74L759.52,2168.74L759.52,2168.74z" clip-path="url(#b)" class="color6f6f6f svgShape"></path><path fill="#6e6e6e" d="M759.52,2168.74L759.52,2168.74L759.52,2168.74z" clip-path="url(#b)" class="color6e6e6e svgShape"></path><path fill="#6d6d6d" d="M759.52,2168.74L759.52,2168.74L759.52,2168.74z" clip-path="url(#b)" class="color6d6d6d svgShape"></path><path fill="#6c6c6c" d="M759.52,2168.74L759.52,2168.74L759.52,2168.74z" clip-path="url(#b)" class="color6c6c6c svgShape"></path><path fill="#6b6b6b" d="M759.52,2168.74L759.52,2168.74L759.52,2168.74z" clip-path="url(#b)" class="color6b6b6b svgShape"></path><path fill="#6a6a6a" d="M759.52,2168.74L759.52,2168.74L759.52,2168.74z" clip-path="url(#b)" class="color6a6a6a svgShape"></path><path fill="#696969" d="M759.52,2168.74L759.52,2168.74L759.52,2168.74z" clip-path="url(#b)" class="color696969 svgShape"></path><path fill="#686868" d="M759.52,2168.74L759.52,2168.74L759.52,2168.74z" clip-path="url(#b)" class="color686868 svgShape"></path><path fill="#676767" d="M759.52,2168.74L759.52,2168.74L759.52,2168.74z" clip-path="url(#b)" class="color676767 svgShape"></path><path fill="#666666" d="M759.52,2168.74L759.52,2168.74L759.52,2168.74z" clip-path="url(#b)" class="color666 svgShape"></path><path fill="#656565" d="M759.52,2168.74L759.52,2168.74L759.52,2168.74z" clip-path="url(#b)" class="color656565 svgShape"></path><path fill="#646464" d="M759.52,2168.74L759.52,2168.74L759.52,2168.74z" clip-path="url(#b)" class="color646464 svgShape"></path><path fill="#636363" d="M759.52,2168.74L759.52,2168.74L759.52,2168.74z" clip-path="url(#b)" class="color636363 svgShape"></path><path fill="#626262" d="M759.52,2168.74L759.52,2168.74L759.52,2168.74z" clip-path="url(#b)" class="color626262 svgShape"></path><path fill="#616161" d="M759.52,2168.74L759.52,2168.74L759.52,2168.74z" clip-path="url(#b)" class="color616161 svgShape"></path><path fill="#606060" d="M759.52,2168.74L759.52,2168.74L759.52,2168.74z" clip-path="url(#b)" class="color606060 svgShape"></path><path fill="#5f5f5f" d="M759.52,2168.74L759.52,2168.74L759.52,2168.74z" clip-path="url(#b)" class="color5f5f5f svgShape"></path><path fill="#5e5e5e" d="M759.52,2168.74L759.52,2168.74L759.52,2168.74z" clip-path="url(#b)" class="color5e5e5e svgShape"></path><path fill="#5d5d5d" d="M759.52,2168.74L759.52,2168.74L759.52,2168.74z" clip-path="url(#b)" class="color5d5d5d svgShape"></path><path fill="#5c5c5c" d="M759.52,2168.74L759.52,2168.74L759.52,2168.74z" clip-path="url(#b)" class="color5c5c5c svgShape"></path><path fill="#5b5b5b" d="M759.52,2168.74L759.52,2168.74L759.52,2168.74z" clip-path="url(#b)" class="color5b5b5b svgShape"></path><path fill="#5a5a5a" d="M759.52,2168.74L759.52,2168.74L759.52,2168.74z" clip-path="url(#b)" class="color5a5a5a svgShape"></path><path fill="#595959" d="M759.52,2168.74L759.52,2168.74L759.52,2168.74z" clip-path="url(#b)" class="color595959 svgShape"></path><path fill="#585858" d="M759.52,2168.74L759.52,2168.74L759.52,2168.74z" clip-path="url(#b)" class="color585858 svgShape"></path><path fill="#575757" d="M759.52,2168.74L759.52,2168.74L759.52,2168.74z" clip-path="url(#b)" class="color575757 svgShape"></path><path fill="#565656" d="M759.52,2168.74L759.52,2168.74L759.52,2168.74z" clip-path="url(#b)" class="color565656 svgShape"></path><path fill="#555555" d="M759.52,2168.74L759.52,2168.74L759.52,2168.74z" clip-path="url(#b)" class="color555 svgShape"></path><path fill="#545454" d="M759.52,2168.74L759.52,2168.74L759.52,2168.74z" clip-path="url(#b)" class="color545454 svgShape"></path><path fill="#535353" d="M759.52,2168.74L759.52,2168.74L759.52,2168.74z" clip-path="url(#b)" class="color535353 svgShape"></path><path fill="#525252" d="M759.52,2168.74L759.52,2168.74L759.52,2168.74z" clip-path="url(#b)" class="color525252 svgShape"></path><path fill="#515151" d="M759.52,2168.74L759.52,2168.74L759.52,2168.74z" clip-path="url(#b)" class="color515151 svgShape"></path><path fill="#505050" d="M759.52,2168.74L759.52,2168.74L759.52,2168.74z" clip-path="url(#b)" class="color505050 svgShape"></path><path fill="#4f4f4f" d="M759.52,2168.74L759.52,2168.74L759.52,2168.74z" clip-path="url(#b)" class="color4f4f4f svgShape"></path><path fill="#4e4e4e" d="M759.52,2168.74L759.52,2168.74L759.52,2168.74z" clip-path="url(#b)" class="color4e4e4e svgShape"></path><path fill="#4d4d4d" d="M759.52,2168.74L759.52,2168.74L759.52,2168.74z" clip-path="url(#b)" class="color4d4d4d svgShape"></path><path fill="#4c4c4c" d="M759.52,2168.74L759.52,2168.74L759.52,2168.74z" clip-path="url(#b)" class="color4c4c4c svgShape"></path><path fill="#4b4b4b" d="M759.52,2168.74L759.52,2168.74L759.52,2168.74z" clip-path="url(#b)" class="color4b4b4b svgShape"></path><path fill="#4a4a4a" d="M759.52,2168.74L759.52,2168.74L759.52,2168.74z" clip-path="url(#b)" class="color4a4a4a svgShape"></path><path fill="#494949" d="M759.52,2168.74L759.52,2168.74L759.52,2168.74z" clip-path="url(#b)" class="color494949 svgShape"></path><path fill="#484848" d="M759.52,2168.74L759.52,2168.74L759.52,2168.74z" clip-path="url(#b)" class="color484848 svgShape"></path><path fill="#474747" d="M759.52,2168.74L759.52,2168.74L759.52,2168.74z" clip-path="url(#b)" class="color474747 svgShape"></path><path fill="#464646" d="M759.52,2168.74L759.52,2168.74L759.52,2168.74z" clip-path="url(#b)" class="color464646 svgShape"></path><path fill="#454545" d="M759.52,2168.74L759.52,2168.74L759.52,2168.74z" clip-path="url(#b)" class="color454545 svgShape"></path><path fill="#444444" d="M759.52,2168.74L759.52,2168.74L759.52,2168.74z" clip-path="url(#b)" class="color444 svgShape"></path><path fill="#434343" d="M759.52,2168.74L759.52,2168.74L759.52,2168.74z" clip-path="url(#b)" class="color434343 svgShape"></path><path fill="#424242" d="M759.52,2168.74L759.52,2168.74L759.52,2168.74z" clip-path="url(#b)" class="color424242 svgShape"></path><path fill="#414141" d="M759.52,2168.74L759.52,2168.74L759.52,2168.74z" clip-path="url(#b)" class="color414141 svgShape"></path><path fill="#404040" d="M759.52,2168.74L759.52,2168.74L759.52,2168.74z" clip-path="url(#b)" class="color404040 svgShape"></path><path fill="#3f3f3f" d="M759.52,2168.74L759.52,2168.74L759.52,2168.74z" clip-path="url(#b)" class="color3f3f3f svgShape"></path><path fill="#3e3e3e" d="M759.52,2168.74L759.52,2168.74L759.52,2168.74z" clip-path="url(#b)" class="color3e3e3e svgShape"></path><path fill="#3d3d3d" d="M759.52,2168.74L759.52,2168.74L759.52,2168.74z" clip-path="url(#b)" class="color3d3d3d svgShape"></path><path fill="#3c3c3c" d="M759.52,2168.74L759.52,2168.74L759.52,2168.74z" clip-path="url(#b)" class="color3c3c3c svgShape"></path><path fill="#3b3b3b" d="M759.52,2168.74L759.52,2168.74L759.52,2168.74z" clip-path="url(#b)" class="color3b3b3b svgShape"></path><path fill="#3a3a3a" d="M759.52,2168.74L759.52,2168.74L759.52,2168.74z" clip-path="url(#b)" class="color3a3a3a svgShape"></path><path fill="#393939" d="M759.52,2168.74L759.52,2168.74L759.52,2168.74z" clip-path="url(#b)" class="color393939 svgShape"></path><path fill="#383838" d="M759.52,2168.74L759.52,2168.74L759.52,2168.74z" clip-path="url(#b)" class="color383838 svgShape"></path><path fill="#373737" d="M759.52,2168.74L759.52,2168.74L759.52,2168.74z" clip-path="url(#b)" class="color373737 svgShape"></path><path fill="#363636" d="M759.52,2168.74L759.52,2168.74L759.52,2168.74z" clip-path="url(#b)" class="color363636 svgShape"></path><path fill="#353535" d="M759.52,2168.74L759.52,2168.74L759.52,2168.74z" clip-path="url(#b)" class="color353535 svgShape"></path><path fill="#343434" d="M759.52,2168.74L759.52,2168.74L759.52,2168.74z" clip-path="url(#b)" class="color343434 svgShape"></path><path fill="#333333" d="M759.52,2168.74L759.52,2168.74L759.52,2168.74z" clip-path="url(#b)" class="color333 svgShape"></path><path fill="#323232" d="M759.52,2168.74L759.52,2168.74L759.52,2168.74z" clip-path="url(#b)" class="color323232 svgShape"></path><path fill="#313131" d="M759.52,2168.74L759.52,2168.74L759.52,2168.74z" clip-path="url(#b)" class="color313131 svgShape"></path><path fill="#303030" d="M759.52,2168.74L759.52,2168.74L759.52,2168.74z" clip-path="url(#b)" class="color303030 svgShape"></path><path fill="#2f2f2f" d="M759.52,2168.74L759.52,2168.74L759.52,2168.74z" clip-path="url(#b)" class="color2f2f2f svgShape"></path><path fill="#2e2e2e" d="M759.52,2168.74L759.52,2168.74L759.52,2168.74z" clip-path="url(#b)" class="color2e2e2e svgShape"></path><path fill="#2d2d2d" d="M759.52,2168.74L759.52,2168.74L759.52,2168.74z" clip-path="url(#b)" class="color2d2d2d svgShape"></path><path fill="#2c2c2c" d="M759.52,2168.74L759.52,2168.74L759.52,2168.74z" clip-path="url(#b)" class="color2c2c2c svgShape"></path><path fill="#2b2b2b" d="M759.52,2168.74L759.52,2168.74L759.52,2168.74z" clip-path="url(#b)" class="color2b2b2b svgShape"></path><path fill="#2a2a2a" d="M759.52,2168.74L759.52,2168.74L759.52,2168.74z" clip-path="url(#b)" class="color2a2a2a svgShape"></path><path fill="#292929" d="M759.52,2168.74L759.52,2168.74L759.52,2168.74z" clip-path="url(#b)" class="color292929 svgShape"></path><path fill="#282828" d="M759.52,2168.74L759.52,2168.74L759.52,2168.74z" clip-path="url(#b)" class="color282828 svgShape"></path><path fill="#272727" d="M759.52,2168.74L759.52,2168.74L759.52,2168.74z" clip-path="url(#b)" class="color272727 svgShape"></path><path fill="#262626" d="M759.52,2168.74L759.52,2168.74L759.52,2168.74z" clip-path="url(#b)" class="color262626 svgShape"></path><path fill="#252525" d="M759.52,2168.74L759.52,2168.74L759.52,2168.74z" clip-path="url(#b)" class="color252525 svgShape"></path><path fill="#242424" d="M759.52,2168.74L759.52,2168.74L759.52,2168.74z" clip-path="url(#b)" class="color242424 svgShape"></path><path fill="#232323" d="M759.52,2168.74L759.52,2168.74L759.52,2168.74z" clip-path="url(#b)" class="color232323 svgShape"></path><path fill="#222222" d="M759.52,2168.74L759.52,2168.74L759.52,2168.74z" clip-path="url(#b)" class="color222 svgShape"></path><path fill="#212121" d="M759.52,2168.74L759.52,2168.74L759.52,2168.74z" clip-path="url(#b)" class="color212121 svgShape"></path><path fill="#202020" d="M759.52,2168.74L759.52,2168.74L759.52,2168.74z" clip-path="url(#b)" class="color202020 svgShape"></path><path fill="#1f1f1f" d="M759.52,2168.74L759.52,2168.74L759.52,2168.74z" clip-path="url(#b)" class="color1f1f1f svgShape"></path><path fill="#1e1e1e" d="M759.52,2168.74L759.52,2168.74L759.52,2168.74z" clip-path="url(#b)" class="color1e1e1e svgShape"></path><path fill="#1d1d1d" d="M759.52,2168.74L759.52,2168.74L759.52,2168.74z" clip-path="url(#b)" class="color1d1d1d svgShape"></path><path fill="#1c1c1c" d="M759.52,2168.74L759.52,2168.74L759.52,2168.74z" clip-path="url(#b)" class="color1c1c1c svgShape"></path><path fill="#1b1b1b" d="M759.52,2168.74L759.52,2168.74L759.52,2168.74z" clip-path="url(#b)" class="color1b1b1b svgShape"></path><path fill="#1a1a1a" d="M759.52,2168.74L759.52,2168.74L759.52,2168.74z" clip-path="url(#b)" class="color1a1a1a svgShape"></path><path fill="#191919" d="M759.52,2168.74L759.52,2168.74L759.52,2168.74z" clip-path="url(#b)" class="color191919 svgShape"></path><path fill="#181818" d="M759.52,2168.74L759.52,2168.74L759.52,2168.74z" clip-path="url(#b)" class="color181818 svgShape"></path><path fill="#171717" d="M759.52,2168.74L759.52,2168.74L759.52,2168.74z" clip-path="url(#b)" class="color171717 svgShape"></path><path fill="#161616" d="M759.52,2168.74L759.52,2168.74L759.52,2168.74z" clip-path="url(#b)" class="color161616 svgShape"></path><path fill="#151515" d="M759.52,2168.74L759.52,2168.74L759.52,2168.74z" clip-path="url(#b)" class="color151515 svgShape"></path><path fill="#141414" d="M759.52,2168.74L759.52,2168.74L759.52,2168.74z" clip-path="url(#b)" class="color141414 svgShape"></path><path fill="#131313" d="M759.52,2168.74L759.52,2168.74L759.52,2168.74z" clip-path="url(#b)" class="color131313 svgShape"></path><path fill="#121212" d="M759.52,2168.74L759.52,2168.74L759.52,2168.74z" clip-path="url(#b)" class="color121212 svgShape"></path><path fill="#111111" d="M759.52,2168.74L759.52,2168.74L759.52,2168.74z" clip-path="url(#b)" class="color111 svgShape"></path><path fill="#101010" d="M759.52,2168.74L759.52,2168.74L759.52,2168.74z" clip-path="url(#b)" class="color101010 svgShape"></path><path fill="#0f0f0f" d="M759.52,2168.74L759.52,2168.74L759.52,2168.74z" clip-path="url(#b)" class="color0f0f0f svgShape"></path><path fill="#0e0e0e" d="M759.52,2168.74L759.52,2168.74L759.52,2168.74z" clip-path="url(#b)" class="color0e0e0e svgShape"></path><path fill="#0d0d0d" d="M759.52,2168.74L759.52,2168.74L759.52,2168.74z" clip-path="url(#b)" class="color0d0d0d svgShape"></path><path fill="#0c0c0c" d="M759.52,2168.74L759.52,2168.74L759.52,2168.74z" clip-path="url(#b)" class="color0c0c0c svgShape"></path><path fill="#0b0b0b" d="M759.52,2168.74L759.52,2168.74L759.52,2168.74z" clip-path="url(#b)" class="color0b0b0b svgShape"></path><path fill="#0a0a0a" d="M759.52,2168.74L759.52,2168.74L759.52,2168.74z" clip-path="url(#b)" class="color0a0a0a svgShape"></path><path fill="#090909" d="M759.52,2168.74L759.52,2168.74L759.52,2168.74z" clip-path="url(#b)" class="color090909 svgShape"></path><path fill="#080808" d="M759.52,2168.74L759.52,2168.74L759.52,2168.74z" clip-path="url(#b)" class="color080808 svgShape"></path><path fill="#070707" d="M759.52,2168.74L759.52,2168.74L759.52,2168.74z" clip-path="url(#b)" class="color070707 svgShape"></path><path fill="#060606" d="M759.52,2168.74L759.52,2168.74L759.52,2168.74z" clip-path="url(#b)" class="color060606 svgShape"></path><path fill="#050505" d="M759.52,2168.74L759.52,2168.74L759.52,2168.74z" clip-path="url(#b)" class="color050505 svgShape"></path><path fill="#040404" d="M759.52,2168.74L759.52,2168.74L759.52,2168.74z" clip-path="url(#b)" class="color040404 svgShape"></path><path fill="#030303" d="M759.52,2168.74L759.52,2168.74L759.52,2168.74z" clip-path="url(#b)" class="color030303 svgShape"></path><path fill="#020202" d="M759.52,2168.74L759.52,2168.74L759.52,2168.74z" clip-path="url(#b)" class="color020202 svgShape"></path><path fill="#010101" d="M759.52,2168.74L759.52,2168.74L759.52,2168.74z" clip-path="url(#b)" class="color010101 svgShape"></path><path d="M759.52 2168.74L759.52 2168.74 759.52 2168.74zM759.52 2168.74L759.52 2168.74 759.52 2168.74z" clip-path="url(#b)" fill="#000000" class="color000 svgShape"></path><path fill="none" stroke="#000" stroke-miterlimit="10" stroke-width="30" d="M759.52,2168.74" class="colorStroke000 svgStroke"></path><g fill="#000000" class="color000 svgShape"><path d="M2169.58,2524.82" fill="#000000" class="color000 svgShape"></path></g><g opacity=".5" fill="#000000" class="color000 svgShape"><path fill="#ffffff" d="M1935.49,1828.89l104.65,86.07c0,0,19.85-10.83,29.53-37.64l-105.1-83.98
		C1964.57,1793.34,1943.86,1805.61,1935.49,1828.89z" class="colorfff svgShape"></path></g><g opacity=".25" fill="#000000" class="color000 svgShape"><path d="M1907.16,1951.84c0,0,217.5,53.96,199.77-179.89c0,0,59.13,107.13-7.79,170.68
		C2032.21,2006.19,1958.97,1990.61,1907.16,1951.84z" fill="#000000" class="color000 svgShape"></path></g><g fill="#000000" class="color000 svgShape"><path fill="#ffffff" d="M1951.43,1753.03c-1.87-2.21-29.11,11.42-47.08,38.24c-17.95,26.79-20.33,57.33-17.61,58.23
		c2.34,0.78,7.59-20.74,27.13-50.2C1934.24,1768.61,1953.09,1754.98,1951.43,1753.03z" class="colorfff svgShape"></path></g><g fill="#000000" class="color000 svgShape"><ellipse cx="3439.96" cy="675.45" fill="#f7fd04" rx="322.49" ry="317.93" class="colorf7fd04 svgShape"></ellipse><path d="M3439.96,999.33c-44.33,0-87.33-8.56-127.82-25.44c-39.11-16.31-74.23-39.65-104.39-69.39
			c-30.17-29.74-53.86-64.38-70.4-102.95c-17.14-39.94-25.82-82.36-25.82-126.1s8.69-86.16,25.82-126.1
			c16.55-38.57,40.23-73.21,70.4-102.95c30.16-29.74,65.29-53.08,104.39-69.39c40.49-16.88,83.49-25.44,127.82-25.44
			c44.33,0,87.33,8.56,127.82,25.44c39.11,16.31,74.23,39.65,104.39,69.39c30.17,29.74,53.86,64.38,70.4,102.95
			c17.14,39.94,25.82,82.37,25.82,126.1s-8.69,86.15-25.82,126.1c-16.55,38.57-40.23,73.21-70.4,102.95
			c-30.16,29.73-65.29,53.08-104.39,69.39C3527.29,990.77,3484.29,999.33,3439.96,999.33z M3439.96,363.47
			c-174.54,0-316.55,139.95-316.55,311.98s142,311.98,316.55,311.98s316.55-139.95,316.55-311.98S3614.51,363.47,3439.96,363.47z" fill="#000000" class="color000 svgShape"></path></g><g opacity=".6" fill="#000000" class="color000 svgShape"><ellipse cx="3307.94" cy="509.19" fill="#ffffff" rx="63" ry="41.17" transform="rotate(-30 3307.876 509.338)" class="colorfff svgShape"></ellipse><path fill="#ffffff" d="M3287.31,561.52c-1.23,0-2.44-0.03-3.65-0.1c-15.85-0.88-28.06-7.4-34.39-18.36l0,0
			c-6.33-10.96-5.87-24.8,1.3-38.96c6.83-13.5,19.05-25.82,34.42-34.69c15.36-8.87,32.14-13.3,47.25-12.46
			c15.85,0.88,28.06,7.4,34.39,18.36c6.33,10.96,5.87,24.8-1.3,38.96c-6.83,13.5-19.05,25.82-34.42,34.69
			C3316.77,557.12,3301.43,561.52,3287.31,561.52z M3328.54,466.37c-12.46,0-26.11,3.95-38.81,11.29
			c-13.78,7.96-24.68,18.88-30.68,30.74c-5.67,11.2-6.22,21.83-1.55,29.91l0,0c4.67,8.09,14.14,12.92,26.68,13.62
			c13.28,0.74,28.18-3.24,41.97-11.2c13.78-7.96,24.68-18.88,30.68-30.74c5.67-11.2,6.22-21.83,1.55-29.91
			c-4.67-8.09-14.14-12.92-26.68-13.62C3330.66,466.39,3329.6,466.37,3328.54,466.37z" class="colorfff svgShape"></path></g><g opacity=".6" fill="#000000" class="color000 svgShape"><ellipse cx="3455.06" cy="872.22" fill="#ffffff" rx="55.9" ry="35.41" transform="rotate(-5.498 3453.29 871.884)" class="colorfff svgShape"></ellipse><path fill="#ffffff" d="M3449.96,912.64c-12.51,0-24.33-2.57-34-7.46c-12.66-6.41-20.21-16.05-21.28-27.15
			c-1.07-11.1,4.51-22,15.72-30.71c10.57-8.21,25.07-13.57,40.82-15.09c15.75-1.51,31,0.98,42.94,7.03
			c12.66,6.41,20.21,16.05,21.28,27.15v0c1.07,11.1-4.51,22-15.72,30.71c-10.57,8.22-25.07,13.57-40.82,15.09
			C3455.9,912.49,3452.91,912.64,3449.96,912.64z M3460.2,841.31c-2.66,0-5.36,0.13-8.08,0.39c-13.98,1.34-26.72,6.01-35.89,13.13
			c-8.54,6.63-12.83,14.55-12.08,22.28c0.74,7.74,6.47,14.69,16.11,19.57c10.36,5.25,23.76,7.39,37.73,6.05
			c13.98-1.34,26.72-6.01,35.89-13.13c8.54-6.63,12.83-14.55,12.08-22.28v0c-0.74-7.74-6.47-14.69-16.11-19.57
			C3481.52,843.53,3471.2,841.31,3460.2,841.31z" class="colorfff svgShape"></path></g><g opacity=".6" fill="#000000" class="color000 svgShape"><ellipse cx="3604.44" cy="536.7" fill="#ffffff" rx="43.03" ry="58.72" transform="rotate(-46.394 3604.164 536.76)" class="colorfff svgShape"></ellipse><path fill="#ffffff" d="M3620.18,592.57c-2.37,0-4.79-0.16-7.27-0.48c-14.63-1.89-29.34-9.28-41.43-20.79
			c-12.08-11.51-20.17-25.85-22.77-40.37c-2.7-15.06,0.77-28.56,9.77-38.01c9-9.45,22.31-13.57,37.49-11.6
			c14.63,1.89,29.34,9.28,41.43,20.79s20.17,25.85,22.77,40.37c2.7,15.06-0.77,28.56-9.77,38.01l0,0
			C3642.87,588.39,3632.32,592.57,3620.18,592.57z M3588.81,490.32c-9.24,0-17.55,2.98-23.44,9.16
			c-14.55,15.28-8.87,44.41,12.68,64.93c21.54,20.52,50.91,24.79,65.47,9.51l0,0c14.55-15.28,8.87-44.41-12.68-64.93
			C3618.01,496.78,3602.41,490.32,3588.81,490.32z" class="colorfff svgShape"></path></g><g fill="#000000" class="color000 svgShape"><ellipse cx="3311.18" cy="513.07" fill="#f7fd04" rx="62.82" ry="36.19" transform="rotate(-30 3311.11 513.225)" class="colorf7fd04 svgShape"></ellipse><path d="M3285.45,562.2c-15.43,0-27.08-5.45-32.79-15.34l0,0c-5.72-9.91-4.6-22.73,3.14-36.12c7.27-12.56,19.67-24.33,34.91-33.13
			c15.24-8.8,31.63-13.65,46.14-13.67c0.02,0,0.04,0,0.06,0c15.43,0,27.08,5.45,32.79,15.34c5.72,9.91,4.6,22.73-3.14,36.12
			c-7.27,12.56-19.67,24.33-34.91,33.13c-15.24,8.8-31.63,13.65-46.14,13.67C3285.49,562.2,3285.47,562.2,3285.45,562.2z
			 M3260.9,542.1c8.52,14.75,38.74,13.93,66-1.81c27.26-15.74,43.09-41.5,34.57-56.25c-8.52-14.75-38.74-13.93-66,1.81
			C3268.21,501.59,3252.38,527.35,3260.9,542.1L3260.9,542.1z" fill="#000000" class="color000 svgShape"></path></g><g opacity=".6" fill="#000000" class="color000 svgShape"><ellipse cx="3371.76" cy="654.38" fill="#ffffff" rx="63.62" ry="50.4" transform="rotate(-42.26 3371.899 654.347)" class="colorfff svgShape"></ellipse><path fill="#ffffff" d="M3358.47,715.93c-9.63,0-18.7-2.31-26.54-6.87l0,0c-11.36-6.61-19.12-17.54-21.84-30.78
			c-3.51-17.02,1.42-36.16,13.53-52.52c10.6-14.32,25.48-24.95,41.9-29.93c16.72-5.07,33.08-3.69,46.08,3.87
			c11.36,6.61,19.12,17.54,21.84,30.78c3.51,17.02-1.42,36.16-13.53,52.52c-10.6,14.32-25.48,24.95-41.9,29.92
			C3371.38,714.94,3364.8,715.93,3358.47,715.93z M3336.72,700.84c22.41,13.04,56.3,2.5,75.54-23.5
			c10.5-14.18,14.82-30.56,11.86-44.94c-2.21-10.71-8.19-19.17-17.31-24.48c-22.41-13.04-56.3-2.5-75.54,23.5
			c-10.5,14.18-14.82,30.56-11.86,44.94C3321.61,687.07,3327.6,695.53,3336.72,700.84L3336.72,700.84z" class="colorfff svgShape"></path></g><g opacity=".1" fill="#000000" class="color000 svgShape"><ellipse cx="3311.18" cy="513.07" rx="62.82" ry="36.19" transform="rotate(-30 3311.11 513.225)" fill="#000000" class="color000 svgShape"></ellipse><path d="M3285.45,562.2c-15.43,0-27.08-5.45-32.79-15.34l0,0c-5.72-9.91-4.6-22.73,3.14-36.12c7.27-12.56,19.67-24.33,34.91-33.13
			c15.24-8.8,31.63-13.65,46.14-13.67c0.02,0,0.04,0,0.06,0c15.43,0,27.08,5.45,32.79,15.34c5.72,9.91,4.6,22.73-3.14,36.12
			c-7.27,12.56-19.67,24.33-34.91,33.13c-15.24,8.8-31.63,13.65-46.14,13.67C3285.49,562.2,3285.47,562.2,3285.45,562.2z
			 M3260.9,542.1c8.52,14.75,38.74,13.93,66-1.81c27.26-15.74,43.09-41.5,34.57-56.25c-8.52-14.75-38.74-13.93-66,1.81
			C3268.21,501.59,3252.38,527.35,3260.9,542.1L3260.9,542.1z" fill="#000000" class="color000 svgShape"></path></g><g opacity=".1" fill="#000000" class="color000 svgShape"><ellipse cx="3313.62" cy="516.26" rx="62.78" ry="40.15" transform="rotate(-30 3313.555 516.415)" fill="#000000" class="color000 svgShape"></ellipse><path d="M3292.15,567.87c-1,0-2-0.02-2.99-0.07c-15.74-0.72-27.82-7.03-34.02-17.77c-6.2-10.74-5.63-24.36,1.62-38.35
			c6.89-13.29,19.11-25.48,34.41-34.31c15.3-8.83,31.96-13.32,46.92-12.64c15.74,0.72,27.82,7.03,34.02,17.77
			c6.2,10.74,5.63,24.36-1.62,38.35c-6.89,13.29-19.11,25.48-34.41,34.31C3321.79,563.41,3306.31,567.87,3292.15,567.87z
			 M3335.07,474.18c-12.5,0-26.29,4.01-39.15,11.44c-13.74,7.94-24.65,18.75-30.72,30.45c-5.7,11.01-6.35,21.38-1.83,29.21l0,0
			c4.52,7.83,13.83,12.46,26.22,13.02c13.16,0.6,27.98-3.44,41.73-11.38c13.74-7.94,24.65-18.75,30.72-30.45
			c5.7-11.01,6.35-21.38,1.83-29.21c-4.52-7.83-13.83-12.46-26.22-13.02C3336.8,474.19,3335.93,474.18,3335.07,474.18z" fill="#000000" class="color000 svgShape"></path></g><g fill="#000000" class="color000 svgShape"><path d="M3295.07,560.22c-9.82,0-17.78-3.25-21.9-9.84c-8.78-14.01,3.58-37.05,28.15-52.44c11.27-7.06,23.39-11.39,34.14-12.2
			c11.84-0.89,20.83,2.57,25.32,9.74c8.78,14.01-3.58,37.05-28.15,52.44C3319.61,556.08,3306.15,560.22,3295.07,560.22z
			 M3338.98,495.12c-0.9,0-1.84,0.04-2.81,0.11c-9.24,0.69-19.82,4.52-29.8,10.77c-9.98,6.26-18.04,14.11-22.69,22.12
			c-4.04,6.96-4.93,13.24-2.45,17.21s8.52,5.9,16.55,5.3c9.24-0.69,19.82-4.52,29.8-10.77c9.98-6.26,18.04-14.11,22.69-22.12
			c4.04-6.96,4.93-13.24,2.45-17.21C3350.53,497.03,3345.6,495.12,3338.98,495.12z" fill="#000000" class="color000 svgShape"></path></g><g opacity=".25" fill="#000000" class="color000 svgShape"><ellipse cx="3316.98" cy="523.49" rx="46.94" ry="24.73" transform="rotate(-32.07 3317.27 523.312)" fill="#000000" class="color000 svgShape"></ellipse><path d="M3295.07,560.78c-9.82,0-17.78-3.25-21.9-9.84c-8.78-14.01,3.58-37.05,28.15-52.44c11.27-7.06,23.39-11.39,34.14-12.2
			c11.84-0.89,20.83,2.57,25.32,9.74c4.49,7.17,3.68,16.77-2.28,27.04c-5.41,9.32-14.6,18.35-25.87,25.41
			C3319.61,556.65,3306.15,560.78,3295.07,560.78z M3338.98,495.68c-0.9,0-1.84,0.04-2.81,0.11c-9.24,0.69-19.82,4.52-29.8,10.77
			c-9.98,6.26-18.04,14.11-22.69,22.12c-4.04,6.96-4.93,13.24-2.45,17.21c2.49,3.97,8.52,5.9,16.55,5.3
			c9.24-0.69,19.82-4.52,29.8-10.77s18.04-14.11,22.69-22.12c4.04-6.96,4.93-13.24,2.45-17.21l0,0
			C3350.53,497.6,3345.6,495.68,3338.98,495.68z" fill="#000000" class="color000 svgShape"></path></g><g fill="#000000" class="color000 svgShape"><ellipse cx="3379.7" cy="660.93" fill="#f7fd04" rx="63.62" ry="50.4" transform="rotate(-42.26 3379.827 660.895)" class="colorf7fd04 svgShape"></ellipse><path d="M3366.41,722.48c-9.63,0-18.7-2.31-26.54-6.87c-11.36-6.61-19.12-17.54-21.84-30.78c-3.51-17.02,1.42-36.16,13.53-52.52
			c10.6-14.32,25.48-24.95,41.9-29.93c16.72-5.07,33.08-3.69,46.08,3.87c11.36,6.61,19.12,17.54,21.84,30.78
			c3.51,17.02-1.42,36.16-13.53,52.52c-10.6,14.32-25.48,24.95-41.9,29.93C3379.31,721.48,3372.74,722.48,3366.41,722.48z
			 M3392.9,608.88c-19.06,0-40.06,10.66-53.7,29.09c-10.5,14.18-14.82,30.56-11.86,44.94c2.21,10.71,8.19,19.17,17.31,24.48
			c22.41,13.04,56.3,2.5,75.54-23.5c10.5-14.18,14.82-30.56,11.86-44.94c-2.21-10.71-8.19-19.17-17.31-24.48
			C3408.22,610.68,3400.72,608.88,3392.9,608.88z" fill="#000000" class="color000 svgShape"></path></g><g opacity=".1" fill="#000000" class="color000 svgShape"><ellipse cx="3379.8" cy="660.93" rx="63.62" ry="50.4" transform="rotate(-42.26 3379.935 660.894)" fill="#000000" class="color000 svgShape"></ellipse><path d="M3366.51,722.48c-9.63,0-18.7-2.31-26.54-6.87c-11.36-6.61-19.12-17.54-21.84-30.78c-3.51-17.02,1.42-36.16,13.53-52.52
			c10.6-14.32,25.48-24.95,41.9-29.93c16.72-5.07,33.08-3.69,46.08,3.87c11.36,6.61,19.11,17.54,21.84,30.78
			c3.51,17.02-1.42,36.16-13.53,52.52c-10.6,14.32-25.48,24.95-41.9,29.93C3379.41,721.48,3372.84,722.48,3366.51,722.48z
			 M3393,608.88c-19.06,0-40.06,10.66-53.7,29.09c-10.5,14.18-14.82,30.56-11.86,44.94c2.21,10.71,8.19,19.17,17.31,24.48l0,0
			c22.41,13.04,56.3,2.5,75.54-23.5c10.5-14.18,14.82-30.56,11.86-44.94c-2.21-10.71-8.19-19.17-17.31-24.48
			C3408.32,610.68,3400.83,608.88,3393,608.88z" fill="#000000" class="color000 svgShape"></path></g><g fill="#000000" class="color000 svgShape"><ellipse cx="3615.53" cy="544.97" fill="#f7fd04" rx="43.83" ry="58.72" transform="rotate(-46.394 3615.259 545.02)" class="colorf7fd04 svgShape"></ellipse><path d="M3630.49,601.18c-2.23,0-4.51-0.14-6.83-0.42c-14.75-1.78-29.54-9.1-41.63-20.62c-12.09-11.52-20.13-25.93-22.62-40.58
			c-2.58-15.16,1.03-28.79,10.17-38.38c9.14-9.59,22.57-13.86,37.84-12.02c14.75,1.78,29.54,9.1,41.63,20.62
			c12.09,11.52,20.13,25.93,22.62,40.58c2.58,15.16-1.03,28.79-10.17,38.38l0,0C3653.75,596.88,3642.91,601.18,3630.49,601.18z
			 M3600.68,498.23c-9.51,0-18.12,3.1-24.22,9.51c-14.86,15.6-9.42,44.99,12.13,65.51c21.54,20.52,51.16,24.53,66.02,8.93l0,0
			c14.86-15.6,9.42-44.99-12.13-65.51C3629.79,504.59,3614.31,498.23,3600.68,498.23z" fill="#000000" class="color000 svgShape"></path></g><g opacity=".1" fill="#000000" class="color000 svgShape"><ellipse cx="3386.53" cy="668.45" rx="63.62" ry="50.4" transform="rotate(-42.26 3386.669 668.417)" fill="#000000" class="color000 svgShape"></ellipse><path d="M3373.24,730c-9.63,0-18.7-2.31-26.54-6.87l0,0c-11.36-6.61-19.12-17.54-21.84-30.78c-3.51-17.02,1.42-36.16,13.53-52.52
			c10.6-14.32,25.48-24.95,41.9-29.92c16.72-5.07,33.08-3.69,46.08,3.87c11.36,6.61,19.12,17.54,21.84,30.78
			c3.51,17.02-1.42,36.16-13.53,52.52c-10.6,14.32-25.48,24.95-41.9,29.92C3386.15,729,3379.57,730,3373.24,730z M3399.74,616.4
			c-19.06,0-40.06,10.66-53.7,29.09c-10.5,14.18-14.82,30.56-11.86,44.94c2.21,10.71,8.19,19.17,17.31,24.48l0,0
			c22.41,13.04,56.3,2.5,75.54-23.5c10.5-14.18,14.82-30.56,11.86-44.94c-2.21-10.71-8.19-19.17-17.31-24.48
			C3415.06,618.2,3407.56,616.4,3399.74,616.4z" fill="#000000" class="color000 svgShape"></path></g><g fill="#000000" class="color000 svgShape"><path d="M3374.69,720.01c-7.21,0-14.03-1.64-20.04-4.9c-9.35-5.07-15.93-13.8-18.52-24.58c-3.45-14.33,0.24-30.81,10.11-45.21
			c8.47-12.35,20.52-21.78,33.92-26.54c13.75-4.89,27.33-4.31,38.25,1.61c9.35,5.07,15.93,13.8,18.52,24.58
			c3.45,14.33-0.24,30.81-10.11,45.21c-8.47,12.35-20.52,21.78-33.92,26.54C3386.72,718.91,3380.57,720.01,3374.69,720.01z
			 M3398.29,624.99c-15.64,0-33.14,9.59-44.2,25.72c-8.35,12.18-11.53,25.88-8.71,37.6c1.98,8.24,6.76,14.62,13.81,18.44
			c17.97,9.76,44.79-0.09,59.78-21.95c8.35-12.18,11.53-25.88,8.71-37.6c-1.98-8.24-6.76-14.62-13.81-18.44
			C3409.16,626.2,3403.84,624.99,3398.29,624.99z" fill="#000000" class="color000 svgShape"></path></g><g opacity=".15" fill="#000000" class="color000 svgShape"><ellipse cx="3386.53" cy="668.45" rx="52.8" ry="40.81" transform="rotate(-46.394 3386.269 668.492)" fill="#000000" class="color000 svgShape"></ellipse><path d="M3374.69,720.71c-7.21,0-14.03-1.64-20.04-4.9c-9.35-5.07-15.93-13.8-18.52-24.58c-3.45-14.33,0.24-30.81,10.11-45.21
			c8.47-12.35,20.52-21.78,33.92-26.54c13.75-4.88,27.33-4.31,38.25,1.61h0c9.35,5.07,15.93,13.8,18.52,24.58
			c3.45,14.33-0.24,30.81-10.11,45.21c-8.47,12.35-20.52,21.78-33.92,26.54C3386.72,719.62,3380.57,720.71,3374.69,720.71z
			 M3398.29,625.69c-15.64,0-33.14,9.59-44.2,25.72c-8.35,12.18-11.53,25.88-8.71,37.6c1.98,8.24,6.76,14.62,13.81,18.44
			c17.98,9.76,44.79-0.09,59.78-21.95c8.35-12.18,11.53-25.88,8.71-37.6c-1.98-8.24-6.76-14.62-13.81-18.44h0
			C3409.16,626.9,3403.84,625.69,3398.29,625.69z" fill="#000000" class="color000 svgShape"></path></g><g fill="#000000" class="color000 svgShape"><path d="M3625.21,594.15c-9.01,0-18.74-2.65-28.12-7.83c-11.71-6.46-21.4-16.09-27.29-27.12c-6.12-11.46-7.46-23.14-3.79-32.89
			c3.03-8.05,9.1-13.94,17.55-17.06c12.22-4.5,27.52-2.51,41.98,5.46c11.71,6.46,21.4,16.09,27.29,27.12
			c6.12,11.46,7.46,23.14,3.79,32.89l0,0c-3.03,8.05-9.1,13.94-17.55,17.06C3634.78,593.36,3630.1,594.15,3625.21,594.15z
			 M3597.33,516.43c-3.76,0-7.3,0.57-10.48,1.75c-5.78,2.13-9.91,6.1-11.94,11.49c-2.7,7.15-1.53,16.05,3.28,25.05
			c5.03,9.43,13.38,17.7,23.5,23.27c11.86,6.54,24.61,8.36,34.09,4.87c5.78-2.13,9.91-6.1,11.94-11.49l0,0
			c2.7-7.15,1.53-16.05-3.28-25.05c-5.04-9.43-13.38-17.7-23.5-23.27C3613.06,518.69,3604.78,516.43,3597.33,516.43z" fill="#000000" class="color000 svgShape"></path></g><g opacity=".15" fill="#000000" class="color000 svgShape"><ellipse cx="3611.32" cy="550.51" rx="33.11" ry="47.16" transform="rotate(-52.786 3611.077 550.514)" fill="#000000" class="color000 svgShape"></ellipse><path d="M3625.21,594.15c-9.01,0-18.74-2.65-28.12-7.83c-11.71-6.46-21.4-16.09-27.29-27.12c-6.12-11.46-7.46-23.14-3.79-32.89
			c3.03-8.05,9.1-13.94,17.55-17.06c12.22-4.5,27.52-2.51,41.98,5.46c11.71,6.46,21.4,16.09,27.29,27.12
			c6.12,11.46,7.46,23.14,3.79,32.89l0,0c-3.03,8.05-9.1,13.94-17.55,17.06C3634.78,593.36,3630.1,594.15,3625.21,594.15z
			 M3597.33,516.43c-3.76,0-7.3,0.57-10.48,1.75c-5.78,2.13-9.91,6.1-11.94,11.49c-2.7,7.15-1.53,16.05,3.28,25.05
			c5.03,9.43,13.38,17.7,23.5,23.27c11.86,6.54,24.61,8.36,34.09,4.87c5.78-2.13,9.91-6.1,11.94-11.49l0,0
			c2.7-7.15,1.53-16.05-3.28-25.05c-5.04-9.43-13.38-17.7-23.5-23.27C3613.06,518.69,3604.78,516.43,3597.33,516.43z" fill="#000000" class="color000 svgShape"></path></g><g opacity=".1" fill="#000000" class="color000 svgShape"><ellipse cx="3615.86" cy="544.17" rx="43.03" ry="58.72" transform="rotate(-46.394 3615.583 544.224)" fill="#000000" class="color000 svgShape"></ellipse><path d="M3631.6,600.03c-2.37,0-4.79-0.16-7.27-0.48c-14.63-1.89-29.34-9.28-41.43-20.79c-12.08-11.51-20.17-25.85-22.77-40.37
			c-2.7-15.06,0.77-28.56,9.77-38.01c9-9.45,22.31-13.57,37.49-11.6c14.63,1.89,29.34,9.28,41.43,20.79
			c12.08,11.51,20.17,25.85,22.77,40.37c2.7,15.06-0.77,28.56-9.77,38.01l0,0C3654.29,595.86,3643.73,600.03,3631.6,600.03z
			 M3600.17,497.82c-9.53,0-17.69,3.15-23.38,9.13c-14.55,15.28-8.87,44.41,12.68,64.93c21.54,20.52,50.91,24.79,65.47,9.51l0,0
			c14.55-15.28,8.87-44.41-12.68-64.93c-10.63-10.13-23.45-16.6-36.09-18.24C3604.12,497.95,3602.11,497.82,3600.17,497.82z" fill="#000000" class="color000 svgShape"></path></g><g opacity=".1" fill="#000000" class="color000 svgShape"><ellipse cx="3624.71" cy="553.71" rx="43.03" ry="58.72" transform="rotate(-46.394 3624.434 553.76)" fill="#000000" class="color000 svgShape"></ellipse><path d="M3640.45,609.57c-2.37,0-4.79-0.16-7.27-0.48c-14.63-1.89-29.34-9.28-41.43-20.79c-12.08-11.51-20.17-25.85-22.77-40.37
			c-2.7-15.06,0.77-28.56,9.77-38.01c9-9.45,22.31-13.57,37.49-11.6c14.63,1.89,29.34,9.28,41.43,20.79
			c12.08,11.51,20.17,25.85,22.77,40.37c2.7,15.06-0.77,28.56-9.77,38.01l0,0C3663.14,605.39,3652.58,609.57,3640.45,609.57z
			 M3609.02,507.36c-9.53,0-17.69,3.15-23.38,9.13c-6.85,7.2-9.44,17.77-7.29,29.77c2.25,12.55,9.34,25.03,19.97,35.16
			c21.54,20.52,50.91,24.79,65.47,9.51c14.55-15.28,8.87-44.41-12.68-64.93c-10.63-10.13-23.45-16.6-36.09-18.24
			C3612.97,507.49,3610.96,507.36,3609.02,507.36z" fill="#000000" class="color000 svgShape"></path></g><g opacity=".6" fill="#000000" class="color000 svgShape"><ellipse cx="3623.47" cy="770.45" fill="#ffffff" rx="67.09" ry="38.02" transform="rotate(-54.865 3623.554 770.433)" class="colorfff svgShape"></ellipse><path fill="#ffffff" d="M3599.1,834.31c-6.38,0-12.14-1.7-16.98-5.11c-9.77-6.87-14.27-19.62-12.68-35.9
			c1.5-15.3,8.26-32.16,19.04-47.48l0,0c10.78-15.32,24.37-27.37,38.27-33.95c14.78-6.99,28.3-7.06,38.07-0.19
			c9.77,6.87,14.27,19.62,12.68,35.9c-1.5,15.3-8.26,32.16-19.04,47.48c-10.78,15.32-24.37,27.37-38.27,33.95
			C3612.74,832.55,3605.6,834.31,3599.1,834.31z M3596.27,751.3c-19.44,27.63-23.41,59.75-8.67,70.12c3.24,2.28,7.15,3.35,11.5,3.35
			c15.47,0,36.4-13.61,51.58-35.19c19.44-27.63,23.41-59.75,8.67-70.12C3644.6,709.09,3615.71,723.67,3596.27,751.3L3596.27,751.3z" class="colorfff svgShape"></path></g><g fill="#000000" class="color000 svgShape"><ellipse cx="3631.3" cy="777.23" fill="#f7fd04" rx="67.09" ry="39.71" transform="rotate(-54.865 3631.377 777.212)" class="colorf7fd04 svgShape"></ellipse><path d="M3608.1,841.46c-6.81,0-12.97-1.83-18.16-5.47c-10.1-7.11-14.95-20.07-13.66-36.49c1.23-15.52,7.85-32.51,18.64-47.85l0,0
			c10.8-15.34,24.56-27.31,38.75-33.7c15.02-6.77,28.86-6.58,38.96,0.53c10.1,7.11,14.96,20.07,13.66,36.49
			c-1.23,15.52-7.85,32.51-18.64,47.85c-10.8,15.34-24.56,27.31-38.75,33.7C3621.6,839.82,3614.56,841.46,3608.1,841.46z
			 M3602.71,757.11c-9.83,13.97-15.84,29.29-16.94,43.13c-1.02,12.94,2.41,22.87,9.65,27.97c7.24,5.1,17.75,4.97,29.58-0.36
			c12.66-5.7,25.05-16.54,34.88-30.51c9.83-13.97,15.84-29.29,16.94-43.13c1.02-12.94-2.41-22.87-9.65-27.96
			c-7.24-5.1-17.75-4.97-29.58,0.36C3624.93,732.31,3612.54,743.15,3602.71,757.11L3602.71,757.11z" fill="#000000" class="color000 svgShape"></path></g><g opacity=".1" fill="#000000" class="color000 svgShape"><ellipse cx="3630.93" cy="777.74" rx="65.42" ry="39.71" transform="rotate(-54.865 3631.014 777.727)" fill="#000000" class="color000 svgShape"></ellipse><path d="M3609.03,840.72c-6.92,0-13.19-1.86-18.48-5.58c-10.09-7.1-15.04-19.9-13.94-36.04c1.04-15.28,7.42-31.95,17.97-46.94l0,0
			c10.55-14.99,24.09-26.63,38.12-32.76c14.83-6.48,28.55-6.14,38.63,0.96c10.09,7.1,15.04,19.9,13.94,36.04
			c-1.04,15.28-7.42,31.95-17.97,46.94c-10.55,14.99-24.09,26.63-38.12,32.76C3622.12,839.18,3615.31,840.72,3609.03,840.72z
			 M3602.35,757.63c-9.56,13.59-15.33,28.54-16.25,42.11c-0.86,12.7,2.67,22.51,9.93,27.62c7.26,5.11,17.68,5.12,29.35,0.02
			c12.46-5.45,24.59-15.93,34.15-29.52c9.56-13.59,15.33-28.54,16.25-42.11c0.86-12.7-2.67-22.51-9.93-27.62
			c-7.26-5.11-17.68-5.12-29.35-0.02C3624.04,733.56,3611.91,744.04,3602.35,757.63L3602.35,757.63z" fill="#000000" class="color000 svgShape"></path></g><g opacity=".1" fill="#000000" class="color000 svgShape"><ellipse cx="3639.2" cy="783.56" rx="65.42" ry="38.44" transform="rotate(-54.865 3639.286 783.548)" fill="#000000" class="color000 svgShape"></ellipse><path d="M3616.39,846.25c-6.59,0-12.56-1.77-17.57-5.3c-9.83-6.92-14.52-19.56-13.21-35.59c1.24-15.11,7.73-31.69,18.26-46.66
			l3.89,2.74l-3.89-2.74c10.54-14.97,23.94-26.67,37.75-32.95c14.65-6.65,28.13-6.51,37.96,0.41c9.83,6.92,14.52,19.56,13.21,35.59
			c-1.24,15.11-7.73,31.68-18.26,46.66c-10.54,14.97-23.94,26.67-37.75,32.95C3629.61,844.63,3622.71,846.25,3616.39,846.25z
			 M3661.98,730.4c-4.95,0-10.51,1.34-16.41,4.03c-12.29,5.58-24.33,16.15-33.91,29.76c-9.58,13.61-15.46,28.51-16.56,41.96
			c-1.03,12.53,2.24,22.13,9.2,27.03c6.96,4.9,17.1,4.73,28.55-0.47c12.29-5.58,24.33-16.15,33.91-29.76
			c9.58-13.61,15.46-28.51,16.56-41.96c1.03-12.53-2.24-22.13-9.2-27.03C3670.74,731.58,3666.63,730.4,3661.98,730.4z" fill="#000000" class="color000 svgShape"></path></g><g fill="#000000" class="color000 svgShape"><path d="M3606.63,822.4c-5.51,0-10.52-1.49-14.74-4.46c-8.19-5.76-12.12-16.19-11.08-29.36c0.97-12.27,6.19-25.69,14.71-37.79
			c8.52-12.1,19.39-21.55,30.61-26.61c12.05-5.43,23.19-5.25,31.38,0.51c8.18,5.76,12.12,16.19,11.08,29.36
			c-0.97,12.27-6.19,25.69-14.71,37.79c-8.52,12.1-19.39,21.55-30.61,26.61C3617.44,821.09,3611.81,822.4,3606.63,822.4z
			 M3642.74,729.76c-3.82,0-8.12,1.03-12.7,3.1c-9.69,4.37-19.18,12.68-26.73,23.41l0,0c-7.55,10.73-12.17,22.47-13.01,33.07
			c-0.77,9.69,1.74,17.09,7.07,20.83c5.32,3.75,13.14,3.61,22-0.38c9.69-4.37,19.19-12.68,26.74-23.41
			c14.82-21.06,17.54-45.74,5.94-53.9C3649.47,730.66,3646.32,729.76,3642.74,729.76z" fill="#000000" class="color000 svgShape"></path></g><g opacity=".1" fill="#000000" class="color000 svgShape"><ellipse cx="3624.71" cy="771.32" rx="52.26" ry="30.92" transform="rotate(-54.865 3624.79 771.301)" fill="#000000" class="color000 svgShape"></ellipse><path d="M3606.63,822.4c-5.51,0-10.52-1.49-14.74-4.46c-8.19-5.76-12.12-16.19-11.08-29.36c0.97-12.27,6.19-25.69,14.71-37.79
			c8.52-12.1,19.39-21.55,30.61-26.61c12.05-5.43,23.19-5.25,31.38,0.51c8.18,5.76,12.12,16.19,11.08,29.36
			c-0.97,12.27-6.19,25.69-14.71,37.79c-8.52,12.1-19.39,21.55-30.61,26.61C3617.44,821.09,3611.81,822.4,3606.63,822.4z
			 M3642.74,729.76c-3.82,0-8.12,1.03-12.7,3.1c-9.69,4.37-19.18,12.68-26.73,23.41l0,0c-7.55,10.73-12.17,22.47-13.01,33.07
			c-0.77,9.69,1.74,17.09,7.07,20.83c5.32,3.75,13.14,3.61,22-0.38c9.69-4.37,19.19-12.68,26.74-23.41
			c14.82-21.06,17.54-45.74,5.94-53.9C3649.47,730.66,3646.32,729.76,3642.74,729.76z" fill="#000000" class="color000 svgShape"></path></g><g fill="#000000" class="color000 svgShape"><ellipse cx="3464.85" cy="879.68" fill="#f7fd04" rx="56.48" ry="35.41" transform="rotate(-5.498 3466.574 880.414)" class="colorf7fd04 svgShape"></ellipse><path d="M3459.58,920.1c-12.59,0-24.49-2.55-34.22-7.42c-12.78-6.4-20.4-16.04-21.47-27.14c-1.07-11.11,4.58-22.02,15.9-30.74
			c10.68-8.22,25.31-13.59,41.21-15.11c15.9-1.53,31.29,0.95,43.33,6.98c12.78,6.4,20.4,16.04,21.47,27.14v0
			c1.07,11.1-4.58,22.02-15.9,30.73c-10.68,8.22-25.31,13.59-41.21,15.11C3465.63,919.96,3462.58,920.1,3459.58,920.1z
			 M3470.17,848.76c-2.72,0-5.47,0.13-8.25,0.4c-14.14,1.36-27.04,6.04-36.32,13.18c-8.63,6.64-12.98,14.56-12.24,22.28
			c0.74,7.73,6.52,14.67,16.26,19.54c10.47,5.24,24.02,7.38,38.17,6.02c14.14-1.36,27.04-6.04,36.32-13.18
			c8.63-6.64,12.98-14.56,12.24-22.29c-0.74-7.73-6.52-14.67-16.26-19.54C3491.67,850.97,3481.27,848.76,3470.17,848.76z" fill="#000000" class="color000 svgShape"></path></g><g opacity=".6" fill="#000000" class="color000 svgShape"><ellipse cx="3214.98" cy="786.6" fill="#ffffff" rx="33.01" ry="58.58" transform="rotate(-45.001 3214.989 786.645)" class="colorfff svgShape"></ellipse><path fill="#ffffff" d="M3239.71,838.93c-4.11,0-8.54-0.65-13.22-1.95c-13.01-3.63-26.58-12.04-38.21-23.67
			c-11.63-11.63-20.04-25.2-23.67-38.21c-3.9-13.96-1.91-25.78,5.59-33.28c7.5-7.5,19.32-9.49,33.28-5.59
			c13.01,3.63,26.58,12.04,38.21,23.67c11.63,11.63,20.04,25.2,23.67,38.21c3.9,13.96,1.91,25.78-5.59,33.28
			C3254.78,836.38,3247.88,838.93,3239.71,838.93z M3190.28,743.79c-5.62,0-10.2,1.6-13.35,4.76
			c-10.83,10.83-2.55,37.41,18.08,58.04c10.5,10.5,22.59,18.04,34.04,21.24c10.51,2.93,19.03,1.81,23.99-3.15
			c10.83-10.83,2.55-37.41-18.08-58.04c-10.5-10.5-22.59-18.04-34.04-21.24C3197.08,744.32,3193.51,743.79,3190.28,743.79z" class="colorfff svgShape"></path></g><g opacity=".1" fill="#000000" class="color000 svgShape"><ellipse cx="3464.3" cy="879.62" rx="55.9" ry="35.41" transform="rotate(-5.498 3462.487 879.275)" fill="#000000" class="color000 svgShape"></ellipse><path d="M3459.2,920.04c-12.51,0-24.34-2.57-34-7.46c-12.66-6.41-20.21-16.05-21.28-27.15c-1.07-11.1,4.51-22,15.72-30.71
			c10.57-8.21,25.07-13.57,40.82-15.09c15.75-1.51,31,0.98,42.94,7.03c12.66,6.41,20.21,16.05,21.28,27.15v0
			c1.07,11.1-4.51,22-15.72,30.71c-10.57,8.21-25.07,13.57-40.82,15.09C3465.14,919.9,3462.15,920.04,3459.2,920.04z
			 M3469.44,848.71c-2.66,0-5.36,0.13-8.08,0.39c-13.98,1.34-26.72,6.01-35.89,13.13c-8.54,6.63-12.83,14.55-12.08,22.28
			c0.74,7.74,6.47,14.69,16.11,19.57c10.36,5.24,23.75,7.39,37.73,6.05c13.98-1.34,26.72-6.01,35.89-13.13
			c8.54-6.63,12.83-14.55,12.08-22.28c-0.74-7.74-6.47-14.69-16.11-19.57C3490.76,850.93,3480.44,848.71,3469.44,848.71z" fill="#000000" class="color000 svgShape"></path></g><g opacity=".1" fill="#000000" class="color000 svgShape"><ellipse cx="3471.61" cy="881.55" rx="54.4" ry="37.85" transform="rotate(-5.498 3469.838 881.212)" fill="#000000" class="color000 svgShape"></ellipse><path d="M3467.68,924.35c-12.53,0-24.43-2.87-34.13-8.33c-12.31-6.92-19.7-17.15-20.83-28.81c-1.12-11.66,4.19-23.11,14.95-32.25
			c10.28-8.72,24.43-14.34,39.85-15.83c15.42-1.48,30.38,1.34,42.13,7.94c12.31,6.92,19.7,17.15,20.83,28.81v0
			c1.12,11.66-4.19,23.11-14.95,32.25c-10.28,8.72-24.43,14.34-39.85,15.83C3473,924.22,3470.33,924.35,3467.68,924.35z
			 M3475.56,848.26c-2.35,0-4.73,0.11-7.12,0.34c-13.5,1.3-25.79,6.13-34.6,13.61c-8.32,7.06-12.45,15.62-11.64,24.08
			c0.81,8.47,6.5,16.08,16.02,21.42c10.07,5.66,23.06,8.06,36.56,6.76c13.5-1.3,25.79-6.13,34.6-13.61
			c8.32-7.06,12.45-15.62,11.64-24.08c-0.81-8.47-6.5-16.08-16.02-21.42C3496.71,850.72,3486.46,848.26,3475.56,848.26z" fill="#000000" class="color000 svgShape"></path></g><g fill="#000000" class="color000 svgShape"><path d="M3452.52,903.39c-9.65,0-18.7-1.36-26.35-4.03c-12.4-4.32-19.87-11.63-21.05-20.58c-1.18-8.95,4.16-17.94,15.02-25.32
			c9.9-6.72,23.5-11.49,38.3-13.44c14.8-1.94,29.17-0.85,40.47,3.09c12.4,4.32,19.87,11.63,21.05,20.58v0
			c1.18,8.95-4.16,17.94-15.02,25.32c-9.9,6.72-23.5,11.49-38.3,13.44C3461.86,903.08,3457.12,903.39,3452.52,903.39z
			 M3472.62,848.59c-4.2,0-8.54,0.29-12.94,0.86c-13.36,1.75-25.5,5.97-34.2,11.87c-7.62,5.17-11.61,11.08-10.93,16.21
			c0.67,5.13,6.05,9.8,14.75,12.83c9.93,3.46,22.75,4.4,36.1,2.64c13.36-1.75,25.5-5.97,34.2-11.87
			c7.62-5.17,11.61-11.08,10.93-16.21v0c-0.67-5.13-6.05-9.8-14.75-12.83C3489.13,849.78,3481.17,848.59,3472.62,848.59z" fill="#000000" class="color000 svgShape"></path></g><g opacity=".1" fill="#000000" class="color000 svgShape"><ellipse cx="3462.54" cy="871.24" rx="53.16" ry="26.72" transform="rotate(-7.476 3463.192 871.017)" fill="#000000" class="color000 svgShape"></ellipse><path d="M3452.52,903.39c-9.65,0-18.7-1.36-26.35-4.03c-12.4-4.32-19.87-11.63-21.05-20.58c-1.18-8.95,4.16-17.94,15.02-25.32
			c9.9-6.72,23.5-11.49,38.3-13.44c14.8-1.94,29.17-0.85,40.47,3.09c12.4,4.32,19.87,11.63,21.05,20.58v0
			c1.18,8.95-4.16,17.94-15.02,25.32c-9.9,6.72-23.5,11.49-38.3,13.44C3461.86,903.08,3457.12,903.39,3452.52,903.39z
			 M3472.62,848.59c-4.2,0-8.54,0.29-12.94,0.86c-13.36,1.75-25.5,5.97-34.2,11.87c-7.62,5.17-11.61,11.08-10.93,16.21
			c0.67,5.13,6.05,9.8,14.75,12.83c9.93,3.46,22.75,4.4,36.1,2.64c13.36-1.75,25.5-5.97,34.2-11.87
			c7.62-5.17,11.61-11.08,10.93-16.21v0c-0.67-5.13-6.05-9.8-14.75-12.83C3489.13,849.78,3481.17,848.59,3472.62,848.59z" fill="#000000" class="color000 svgShape"></path></g><g fill="#000000" class="color000 svgShape"><ellipse cx="3221.95" cy="796.56" fill="#f7fd04" rx="33.01" ry="58.58" transform="rotate(-45.001 3221.953 796.607)" class="colorf7fd04 svgShape"></ellipse><path d="M3246.67,848.89c-4.11,0-8.54-0.65-13.22-1.95c-13.01-3.63-26.58-12.04-38.21-23.67c-11.63-11.63-20.04-25.2-23.67-38.21
			c-3.9-13.96-1.91-25.78,5.59-33.28c7.5-7.5,19.32-9.49,33.28-5.59c13.01,3.63,26.58,12.04,38.21,23.67
			c11.63,11.63,20.04,25.2,23.67,38.21c3.9,13.96,1.91,25.78-5.59,33.28C3261.75,846.34,3254.84,848.89,3246.67,848.89z
			 M3197.26,753.74c-5.48,0-10.13,1.53-13.37,4.77c-10.83,10.83-2.55,37.41,18.08,58.04c10.5,10.5,22.59,18.04,34.04,21.24
			c10.51,2.93,19.03,1.81,23.99-3.15c4.97-4.97,6.09-13.49,3.15-23.99c-3.2-11.46-10.74-23.55-21.24-34.04
			C3227.47,762.13,3210.09,753.74,3197.26,753.74z" fill="#000000" class="color000 svgShape"></path></g><g opacity=".1" fill="#000000" class="color000 svgShape"><ellipse cx="3221.95" cy="796.56" rx="33.01" ry="58.58" transform="rotate(-45.001 3221.953 796.607)" fill="#000000" class="color000 svgShape"></ellipse><path d="M3246.67,848.89c-4.11,0-8.54-0.65-13.22-1.95c-13.01-3.63-26.58-12.04-38.21-23.67c-11.63-11.63-20.04-25.2-23.67-38.21
			c-3.9-13.96-1.91-25.78,5.59-33.28c7.5-7.5,19.32-9.49,33.28-5.59c13.01,3.63,26.58,12.04,38.21,23.67
			c11.63,11.63,20.04,25.2,23.67,38.21c3.9,13.96,1.91,25.78-5.59,33.28C3261.75,846.34,3254.84,848.89,3246.67,848.89z
			 M3197.26,753.74c-5.48,0-10.13,1.53-13.37,4.77c-10.83,10.83-2.55,37.41,18.08,58.04c10.5,10.5,22.59,18.04,34.04,21.24
			c10.51,2.93,19.03,1.81,23.99-3.15c4.97-4.97,6.09-13.49,3.15-23.99c-3.2-11.46-10.74-23.55-21.24-34.04
			C3227.47,762.13,3210.09,753.74,3197.26,753.74z" fill="#000000" class="color000 svgShape"></path></g><g opacity=".1" fill="#000000" class="color000 svgShape"><ellipse cx="3231.93" cy="808.94" rx="33.01" ry="58.58" transform="rotate(-45.001 3231.935 808.981)" fill="#000000" class="color000 svgShape"></ellipse><path d="M3256.65,861.27c-4.11,0-8.54-0.65-13.22-1.95c-13.01-3.63-26.58-12.04-38.21-23.67c-11.63-11.63-20.04-25.2-23.67-38.21
			c-3.9-13.96-1.91-25.78,5.59-33.28c7.5-7.5,19.32-9.49,33.28-5.59c13.01,3.63,26.58,12.04,38.21,23.67s20.04,25.2,23.67,38.21
			c3.9,13.96,1.91,25.78-5.59,33.28C3271.73,858.72,3264.82,861.27,3256.65,861.27z M3207.22,766.12c-5.62,0-10.2,1.6-13.35,4.76
			c-4.97,4.97-6.09,13.49-3.15,23.99c3.2,11.46,10.74,23.55,21.24,34.04c20.63,20.63,47.21,28.91,58.04,18.08
			c10.83-10.83,2.55-37.41-18.08-58.04c-10.5-10.5-22.59-18.04-34.04-21.24C3214.03,766.66,3210.45,766.12,3207.22,766.12z" fill="#000000" class="color000 svgShape"></path></g><g fill="#000000" class="color000 svgShape"><path d="M3248.44,831.17c-3.61,0-7.56-0.66-11.77-2c-10.22-3.25-21.01-10.22-30.4-19.61c-9.39-9.39-16.35-20.19-19.61-30.4
			c-3.6-11.28-2.33-20.75,3.57-26.65c5.9-5.9,15.36-7.17,26.65-3.57c10.22,3.25,21.01,10.22,30.4,19.61h0
			c9.39,9.39,16.35,20.19,19.61,30.4c3.6,11.28,2.33,20.75-3.57,26.65C3259.62,829.29,3254.51,831.17,3248.44,831.17z
			 M3205.15,756.49c-3.53,0-6.37,0.92-8.19,2.75c-6.52,6.52-1.54,26.03,16.03,43.6c17.57,17.57,37.08,22.55,43.6,16.03
			c6.52-6.52,1.54-26.03-16.03-43.6C3227.9,762.61,3214.24,756.49,3205.15,756.49z" fill="#000000" class="color000 svgShape"></path></g><g opacity=".1" fill="#000000" class="color000 svgShape"><ellipse cx="3226.77" cy="789.05" rx="24.25" ry="46.92" transform="rotate(-45.001 3226.78 789.088)" fill="#000000" class="color000 svgShape"></ellipse><path d="M3248.44,831.17c-3.61,0-7.56-0.66-11.77-2c-10.22-3.25-21.01-10.22-30.4-19.61c-9.39-9.39-16.35-20.19-19.61-30.4
			c-3.6-11.28-2.33-20.75,3.57-26.65c5.9-5.9,15.36-7.17,26.65-3.57c10.22,3.25,21.01,10.22,30.4,19.61h0
			c9.39,9.39,16.35,20.19,19.61,30.4c3.6,11.28,2.33,20.75-3.57,26.65C3259.62,829.29,3254.51,831.17,3248.44,831.17z
			 M3205.15,756.49c-3.53,0-6.37,0.92-8.19,2.75c-6.52,6.52-1.54,26.03,16.03,43.6c17.57,17.57,37.08,22.55,43.6,16.03
			c6.52-6.52,1.54-26.03-16.03-43.6C3227.9,762.61,3214.24,756.49,3205.15,756.49z" fill="#000000" class="color000 svgShape"></path></g><g fill="#000000" class="color000 svgShape"><path d="M3191.84,645.88c-0.54,5.34,1.67,10.96,5.65,14.38c1.66,1.43,4.48,3.13,5.26,2.3c1.34-1.43-5.9-7.76-5.13-16.11
			c0.5-5.41,4.22-9.4,6.18-11.5c5.18-5.56,11.07-7.1,10.82-7.73c-0.23-0.57-5.33,0.17-10.3,2.93
			C3201.57,631.68,3192.78,636.56,3191.84,645.88z" fill="#000000" class="color000 svgShape"></path></g><g fill="#000000" class="color000 svgShape"><path d="M3504.36,650.16c-0.24,7,3.15,14.7,9.02,18.62c0.62,0.41,3.86,2.57,4.92,1.65c1.92-1.67-7.02-10.11-6.08-20.07
			c0.85-9.02,9.4-14.81,10.38-15.45c13.38-8.8,31.55-0.51,31.85-1.74c0.3-1.21-16.81-12.19-32.82-5.47
			C3513.55,631.1,3504.72,639.45,3504.36,650.16z" fill="#000000" class="color000 svgShape"></path></g><g opacity=".2" fill="#000000" class="color000 svgShape"><ellipse cx="3453.49" cy="477.99" rx="24.22" ry="24.76" fill="#000000" class="color000 svgShape"></ellipse></g><g opacity=".25" fill="#000000" class="color000 svgShape"><ellipse cx="3534.44" cy="650.74" rx="30.16" ry="24.72" fill="#000000" class="color000 svgShape"></ellipse></g><g opacity=".2" fill="#000000" class="color000 svgShape"><ellipse cx="3221.95" cy="647.91" rx="30.16" ry="21.88" fill="#000000" class="color000 svgShape"></ellipse></g><g fill="#000000" class="color000 svgShape"><path d="M3473.11,463.74c0.78-1.34-10.6-15.1-23.86-12.92c-14.34,2.35-20.24,21.59-19.11,22.44c0.98,0.73,7.06-12.37,19.82-14.9
			C3462.27,455.91,3472.42,464.94,3473.11,463.74z" fill="#000000" class="color000 svgShape"></path></g><g opacity=".2" fill="#000000" class="color000 svgShape"><ellipse cx="3348.84" cy="797.89" rx="24.22" ry="24.76" fill="#000000" class="color000 svgShape"></ellipse></g><g fill="#000000" class="color000 svgShape"><path d="M3368.47,783.64c0.78-1.34-10.6-15.1-23.86-12.92c-14.34,2.35-20.24,21.59-19.11,22.44c0.98,0.73,7.06-12.37,19.82-14.9
			C3357.62,775.8,3367.77,784.84,3368.47,783.64z" fill="#000000" class="color000 svgShape"></path></g><g opacity=".25" fill="#000000" class="color000 svgShape"><path d="M3159.33,839.61c139.97,87.51,313.76,83.22,433.96-8.36c132.84-101.21,140.17-263.26,140.84-286.28
			c0,0,96.86,182.38-74.39,364.09C3659.74,909.06,3414.29,1135.48,3159.33,839.61z" fill="#000000" class="color000 svgShape"></path></g><g opacity=".6" fill="#000000" class="color000 svgShape"><path fill="#ffffff" d="M3175.18,846.51c0,0-102.43-238.08,91.65-403.62c0,0,103.31-94.18,267.61-64.69c0,0-169-62.62-312.49,72.39
			c-143.49,135.01-87.36,304.35-87.36,304.35S3147.94,808.11,3175.18,846.51z" class="colorfff svgShape"></path></g><g fill="#000000" class="color000 svgShape"><path fill="#a7a7a7" d="M3386.9,347.97" class="colora7a7a7 svgShape"></path></g><g fill="#000000" class="color000 svgShape"><path fill="#dddddd" stroke="#000" stroke-miterlimit="10" stroke-width="20" d="M3204.58,367.74" class="colorddd svgShape colorStroke000 svgStroke"></path></g><g opacity=".5" fill="#000000" class="color000 svgShape"><path fill="#ffffff" d="M3274.92,525.82c0,0-11.73-9.83,0-19.66c0,0-7.41,0.41-8.56,10.11
			C3266.35,516.26,3266.04,523.6,3274.92,525.82z" class="colorfff svgShape"></path></g><g fill="#000000" class="color000 svgShape"><path fill="#4c4c4c" stroke="#000" stroke-miterlimit="10" stroke-width="20" d="M3025.43,410.72" class="color4c4c4c svgShape colorStroke000 svgStroke"></path></g><g fill="#000000" class="color000 svgShape"><path fill="#4c4c4c" stroke="#000" stroke-miterlimit="10" stroke-width="20" d="M3791.58,537.25" class="color4c4c4c svgShape colorStroke000 svgStroke"></path></g><g fill="#000000" class="color000 svgShape"><path fill="#f9b208" d="M2466.88,2682.92" class="colorf9b208 svgShape"></path></g><g fill="#000000" class="color000 svgShape"><path fill="#f9b208" d="M2554.25,2644.7" class="colorf9b208 svgShape"></path></g><g fill="#000000" class="color000 svgShape"><path fill="#f9b208" d="M2406.82,2562.79" class="colorf9b208 svgShape"></path></g><g opacity=".25" fill="#000000" class="color000 svgShape"><path d="M776,3326.33c-9.9,52.96,11.49,104.23,52.03,127.85c36.87,21.49,75.91,12.12,85.48,9.54c0,0,62.66-11.23,79.37-44.92
		c0,0,35.51,57.55,131.58,29.48c0,0,33.42-14.04,50.13-36.5c0,0,37.59,92.65,150.38,78.61c112.78-14.04,116.96-98.26,116.96-98.26
		s41.77,22.46,83.54,11.23c41.77-11.23,50.13-28.07,50.13-28.07s125.32,140.38,284.05,42.11c0,0,29.24-19.65,41.77-33.69
		c0,0,87.72,87.03,217.22,8.42c0,0,33.42-22.46,41.77-56.15c0,0,20.89,101.07,158.73,106.68c137.85,5.61,150.38-67.38,150.38-67.38
		s20.89,44.92,96.08,22.46c0,0,16.71-5.61,33.42-14.04c0,0,0,101.07,133.67,109.49c133.67,8.42,133.67-75.8,133.67-75.8
		s33.42,53.34,125.32,36.5c0,0,37.59-5.61,58.48-33.69c0,0,37.59,56.15,121.14,44.92c31.75-4.27,54.6-23.37,63.21-30.77
		c10.29-8.84,26.71-22.94,35.03-47.96c9.15-27.52,2.97-51.58,0-60.97c15.96,4.61,45.16,15.48,70.98,41.86
		c5.98,6.1,58.07,60.66,43.82,111.88c-16.9,60.74-121.21,95.67-121.21,95.67l0,0l-45.88,5.4h-284.05H832.06
		c-58.13,8.13-114.52-18.16-142.06-65.72c-32.73-56.53-8.86-115.71-5.92-122.66C714.73,3370.01,745.37,3348.17,776,3326.33z" fill="#000000" class="color000 svgShape"></path></g><g fill="#000000" class="color000 svgShape"><path fill="none" stroke="#000" stroke-miterlimit="10" stroke-width="11" d="M1795.72,2799.86" class="colorStroke000 svgStroke"></path></g><g fill="#000000" class="color000 svgShape"><path fill="#ffffff" stroke="#000" stroke-miterlimit="10" stroke-width="25" d="M2893.24,2690.66" class="colorfff svgShape colorStroke000 svgStroke"></path></g><g opacity=".25" fill="#000000" class="color000 svgShape"><path d="M2029.87,2121.58c0,0,78.45,166.38,113.03,129.98c34.58-36.4,141-460.23-155.19-847.59c0,0,139.72,72.22,201.61,313.38
		s40.95,342.18,40.95,342.18s-9.1,138.33,15.47,197.48c0,0-141.02,85.54-202.92,85.09
		C2042.81,2342.11,2073.37,2224.57,2029.87,2121.58z" fill="#000000" class="color000 svgShape"></path></g><g opacity=".25" fill="#000000" class="color000 svgShape"><path d="M1844.4,2404.45c16.97,14.3,74.13,58.83,159.26,60.97c68.57,1.73,118.87-24.97,139.24-37.31
		c2.19,35.34,2.08,74.25-1.93,116.03c-14.68,152.81-74.52,270.75-121.83,344.45c0.3,6.67,0.61,13.35,0.91,20.02
		c0,0,148.34-177.46,169.27-360.38s-22.84-178.82-22.84-178.82s-141.88,128.77-304.78,14.1l-14.56-9.1
		C1846.22,2384.42,1845.31,2394.44,1844.4,2404.45z" fill="#000000" class="color000 svgShape"></path></g><g opacity=".25" fill="#000000" class="color000 svgShape"><path fill="#ffffff" d="M1860.79,2394.44c0,0-60.97,220.23,109.21,437.73c0,0-140.15-201.12-98.29-432.27l0,0l-10.01-6.37
		L1860.79,2394.44L1860.79,2394.44z" class="colorfff svgShape"></path></g><g fill="#000000" class="color000 svgShape"><path d="M1625.08,2620.13" fill="#000000" class="color000 svgShape"></path></g></svg>